<svg width="48" height="48" viewBox="0 0 48 48" fill="none" xmlns="http://www.w3.org/2000/svg">
<path opacity="0.15" d="M40 0H8C3.58172 0 0 3.58172 0 8V40C0 44.4183 3.58172 48 8 48H40C44.4183 48 48 44.4183 48 40V8C48 3.58172 44.4183 0 40 0Z" fill="#59981A"/>
<path d="M36.4832 29.041L34.0891 28.3781C33.8469 28.3119 33.6274 28.1808 33.4543 27.9989C33.2813 27.817 33.1612 27.5912 33.1071 27.346L29.8781 12.246C29.8255 11.9998 29.8412 11.7439 29.9236 11.506C30.0059 11.2681 30.1516 11.0571 30.3452 10.8961L32.2602 9.31203C32.4418 9.16236 32.6589 9.06207 32.8906 9.02077C33.1222 8.97947 33.3607 8.99855 33.5828 9.07625C33.805 9.15395 34.0033 9.28761 34.1588 9.46431C34.3142 9.64101 34.4214 9.8548 34.4702 10.085L38.1902 27.432C38.2388 27.6625 38.2274 27.9016 38.157 28.1264C38.0866 28.3511 37.9596 28.554 37.7882 28.7156C37.6168 28.8771 37.4068 28.9919 37.1782 29.0489C36.9497 29.1059 36.7103 29.1032 36.4832 29.041Z" fill="#59981A"/>
<path d="M22.4508 39.1981C21.9048 39.3147 21.3347 39.2097 20.866 38.9064C20.3972 38.603 20.0681 38.126 19.9508 37.5801L18.0508 28.7151L22.2268 28.1021L24.0658 36.7021C24.1813 37.2471 24.0762 37.8157 23.7736 38.2834C23.4709 38.7512 22.9953 39.0801 22.4508 39.1981Z" fill="#59981A"/>
<path d="M25.4633 33.3812L23.5433 34.2112L22.2363 28.1022L23.8643 27.9202C24.1711 27.8861 24.4796 27.9672 24.73 28.1478C24.9804 28.3283 25.1548 28.5954 25.2193 28.8972L25.9693 32.3972C26.0122 32.5945 25.9852 32.8005 25.8929 32.98C25.8006 33.1596 25.6487 33.3014 25.4633 33.3812Z" fill="#59981A"/>
<path d="M29.9036 12.7871L32.8506 26.5731L16.0326 28.9061C14.5734 29.1095 13.0913 28.753 11.8843 27.9081C10.6773 27.0633 9.83495 25.7928 9.52661 24.3521C9.44027 23.9528 9.39502 23.5456 9.3916 23.1371C9.39461 21.8742 9.80632 20.6463 10.5652 19.6369C11.3241 18.6275 12.3893 17.8908 13.6016 17.5371L29.9036 12.7871Z" fill="#59981A"/>
<path opacity="0.196" d="M36.4832 29.041L34.0891 28.3781C33.8469 28.3119 33.6274 28.1808 33.4543 27.9989C33.2813 27.817 33.1612 27.5912 33.1071 27.346L29.8781 12.246C29.8255 11.9998 29.8412 11.7439 29.9236 11.506C30.0059 11.2681 30.1516 11.0571 30.3452 10.8961L32.2602 9.31203C32.4418 9.16236 32.6589 9.06207 32.8906 9.02077C33.1222 8.97947 33.3607 8.99855 33.5828 9.07625C33.805 9.15395 34.0033 9.28761 34.1588 9.46431C34.3142 9.64101 34.4214 9.8548 34.4702 10.085L38.1902 27.432C38.2388 27.6625 38.2274 27.9016 38.157 28.1264C38.0866 28.3511 37.9596 28.554 37.7882 28.7156C37.6168 28.8771 37.4068 28.9919 37.1782 29.0489C36.9497 29.1059 36.7103 29.1032 36.4832 29.041Z" fill="white"/>
<path opacity="0.196" d="M22.4498 39.1981C21.9038 39.3147 21.3338 39.2097 20.865 38.9064C20.3963 38.603 20.0671 38.126 19.9498 37.5801L18.0498 28.7151L22.2258 28.1021L24.0648 36.7021C24.1803 37.2471 24.0752 37.8157 23.7726 38.2834C23.4699 38.7512 22.9943 39.0801 22.4498 39.1981Z" fill="white"/>
</svg>
