<svg width="24" height="33" viewBox="0 0 24 33" fill="none" xmlns="http://www.w3.org/2000/svg">
<path d="M23.6693 28.1641L23.5123 9.06409C23.508 8.56936 23.3075 8.09655 22.9548 7.74963C22.6021 7.40272 22.126 7.21006 21.6313 7.21405C21.3861 7.21588 21.1438 7.26604 20.918 7.36157C20.6923 7.45711 20.4875 7.59619 20.3155 7.77087C20.1436 7.94556 20.0077 8.15236 19.9156 8.37958C19.8236 8.60679 19.7773 8.84996 19.7793 9.09509L19.8133 13.183C19.8135 13.2181 19.8069 13.2528 19.7937 13.2853C19.7805 13.3177 19.761 13.3472 19.7364 13.3721C19.7118 13.397 19.6825 13.4168 19.6502 13.4304C19.6179 13.4439 19.5833 13.4509 19.5483 13.451C19.5133 13.4513 19.4785 13.4447 19.4461 13.4315C19.4137 13.4183 19.3841 13.3988 19.3592 13.3742C19.3343 13.3496 19.3145 13.3203 19.301 13.288C19.2874 13.2557 19.2804 13.2211 19.2803 13.1861L19.1973 3.23505C19.1956 3.0135 19.1502 2.79448 19.0639 2.59045C18.9775 2.38643 18.8519 2.20141 18.694 2.04596C18.5361 1.89051 18.3492 1.76771 18.1439 1.68451C17.9385 1.60131 17.7188 1.55938 17.4973 1.5611C17.2757 1.5628 17.0567 1.6081 16.8527 1.69446C16.6486 1.78081 16.4636 1.90653 16.3082 2.06439C16.1527 2.22225 16.0299 2.40917 15.9467 2.6145C15.8635 2.81983 15.8215 3.03951 15.8233 3.26105L15.9023 12.8611C15.9028 12.9195 15.8918 12.9774 15.8699 13.0315C15.848 13.0856 15.8157 13.135 15.7747 13.1766C15.7337 13.2182 15.685 13.2513 15.6312 13.274C15.5774 13.2968 15.5197 13.3087 15.4613 13.3091C15.4028 13.3097 15.3449 13.2988 15.2907 13.277C15.2365 13.2551 15.1871 13.2228 15.1455 13.1818C15.1039 13.1408 15.0707 13.092 15.048 13.0381C15.0253 12.9843 15.0135 12.9265 15.0133 12.8681L14.9223 1.85107C14.918 1.35608 14.7174 0.883055 14.3645 0.53595C14.0116 0.188845 13.5353 -0.0039342 13.0403 6.08781e-05C12.5455 0.00455049 12.0726 0.205338 11.7258 0.558227C11.3789 0.911117 11.1863 1.38726 11.1903 1.88208L11.2833 13.0821C11.2841 13.1999 11.2381 13.3133 11.1554 13.3973C11.0727 13.4813 10.9601 13.529 10.8423 13.5301C10.7838 13.5308 10.7259 13.5198 10.6717 13.498C10.6175 13.4761 10.5681 13.4438 10.5265 13.4028C10.4848 13.3618 10.4517 13.313 10.429 13.2592C10.4063 13.2053 10.3945 13.1475 10.3943 13.0891L10.3233 4.55908C10.3193 4.11182 10.1381 3.68437 9.81939 3.37054C9.50069 3.05672 9.07055 2.88214 8.62328 2.88507C8.17594 2.88877 7.74835 3.06991 7.43447 3.38867C7.12059 3.70743 6.94607 4.13774 6.94927 4.58508L7.06127 18.1801C7.06279 18.3693 7.00815 18.5547 6.90429 18.713C6.80042 18.8712 6.65199 18.995 6.47774 19.0688C6.3035 19.1427 6.11129 19.1633 5.92537 19.1279C5.73946 19.0925 5.56821 19.0028 5.43328 18.8701L3.02526 16.5011C2.72011 16.2011 2.30992 16.0321 1.88201 16.03C1.4541 16.028 1.04229 16.193 0.734273 16.4901L0.500265 16.7171C0.221808 16.9862 0.0475802 17.3452 0.00841273 17.7305C-0.0307547 18.1157 0.0676761 18.5024 0.286275 18.8221L7.89727 29.959C8.3316 30.5942 8.91552 31.1128 9.59755 31.4691C10.2796 31.8254 11.0388 32.0084 11.8083 32.0021L20.8593 31.9281H21.0593C22.3593 31.9171 23.5773 31.364 23.6903 30.071L23.6693 28.1641Z" fill="#FF8800"/>
<path d="M11.7537 24.4697C11.3912 24.1034 11.1456 23.6398 11.0476 23.1366C10.9496 22.6335 11.0036 22.1129 11.2027 21.6398C11.4018 21.1667 11.7372 20.7619 12.1674 20.4758C12.5975 20.1897 13.1032 20.0349 13.6217 20.0308H13.6435C14.3131 20.0307 14.9576 20.2827 15.4461 20.7354L15.4824 20.7682L15.5177 20.7343C16.0039 20.2682 16.6532 20.0052 17.3306 20H17.3535C17.8706 19.9994 18.3766 20.1486 18.8087 20.4294C19.2408 20.7101 19.5801 21.11 19.7846 21.5794C19.9891 22.0488 20.0497 22.5672 19.959 23.0704C19.8683 23.5736 19.6303 24.0394 19.2743 24.4102L15.5447 28.1752L11.7537 24.4697Z" fill="#FFEDD9"/>
</svg>
