<svg width="48" height="48" viewBox="0 0 48 48" fill="none" xmlns="http://www.w3.org/2000/svg">
<path opacity="0.15" d="M40 0H8C3.58172 0 0 3.58172 0 8V40C0 44.4183 3.58172 48 8 48H40C44.4183 48 48 44.4183 48 40V8C48 3.58172 44.4183 0 40 0Z" fill="#F3B700"/>
<path d="M24.0005 39.0001C21.0326 39.0027 18.1308 38.1245 15.6624 36.4768C13.194 34.829 11.2702 32.4858 10.1345 29.7439C8.99875 27.002 8.70229 23.9847 9.28263 21.0741C9.86296 18.1636 11.294 15.4907 13.3945 13.3941C14.96 11.8302 16.8522 10.632 18.9354 9.88557C21.0186 9.13909 23.2411 8.86278 25.4436 9.07643C27.6462 9.29008 29.7742 9.9884 31.675 11.1213C33.5759 12.2543 35.2025 13.7937 36.4383 15.6294C37.6741 17.465 38.4885 19.5514 38.823 21.7388C39.1575 23.9263 39.0039 26.1606 38.3732 28.2817C37.7425 30.4028 36.6503 32.358 35.1749 34.0073C33.6995 35.6566 31.8775 36.9589 29.8395 37.8211C27.9923 38.6028 26.0063 39.0038 24.0005 39.0001ZM24.0005 11.3191C21.0744 11.3207 18.2388 12.3337 15.9741 14.1866C13.7095 16.0395 12.155 18.6183 11.574 21.4862C10.9929 24.354 11.4212 27.3345 12.7861 29.9227C14.151 32.5109 16.3687 34.5478 19.0635 35.6881C22.1629 36.9975 25.6556 37.022 28.7731 35.7562C31.8906 34.4904 34.3776 32.038 35.687 28.9386C36.9963 25.8391 37.0208 22.3465 35.7551 19.229C34.4893 16.1115 32.0369 13.6245 28.9375 12.3151C27.3756 11.6542 25.6964 11.3154 24.0005 11.3191Z" fill="#F3B700"/>
<path d="M24.3004 35.4003C22.1052 35.4001 19.9593 34.7491 18.1341 33.5294C16.3089 32.3098 14.8863 30.5764 14.0462 28.5483C13.2061 26.5202 12.9862 24.2885 13.4143 22.1355C13.8424 19.9824 14.8993 18.0047 16.4514 16.4523C17.4823 15.4214 18.7061 14.6036 20.053 14.0457C21.3999 13.4878 22.8435 13.2007 24.3014 13.2007C25.7593 13.2007 27.2029 13.4878 28.5498 14.0457C29.8967 14.6036 31.1205 15.4214 32.1514 16.4523C33.1823 17.4831 34 18.707 34.5579 20.0539C35.1158 21.4008 35.403 22.8444 35.403 24.3023C35.403 25.7601 35.1158 27.2037 34.5579 28.5506C34 29.8976 33.1823 31.1214 32.1514 32.1523C31.1226 33.186 29.899 34.0053 28.5513 34.5628C27.2037 35.1204 25.7588 35.405 24.3004 35.4003ZM21.7004 28.0403C21.565 28.0406 21.4329 28.0827 21.3222 28.1607C21.2114 28.2387 21.1274 28.3489 21.0814 28.4763C21.0291 28.6302 21.0354 28.798 21.099 28.9476C21.1627 29.0973 21.2792 29.2182 21.4264 29.2873C22.1549 29.6135 22.9423 29.788 23.7404 29.8003V31.6763H24.9114V29.7413C25.7532 29.6273 26.528 29.2209 27.1004 28.5933C27.5861 28.0356 27.8529 27.3207 27.8514 26.5813C27.8769 25.8369 27.6188 25.1106 27.1294 24.5493C26.525 23.9315 25.7876 23.4599 24.9734 23.1703C23.4104 22.5273 22.6664 22.0453 22.6664 21.0513C22.6649 20.851 22.7038 20.6525 22.7808 20.4676C22.8577 20.2827 22.9712 20.1153 23.1144 19.9753C23.5339 19.6081 24.0809 19.4207 24.6374 19.4533H24.6704C25.2531 19.4524 25.8304 19.5644 26.3704 19.7833C26.5278 19.846 26.7034 19.8448 26.8599 19.7799C27.0164 19.7151 27.1414 19.5917 27.2082 19.436C27.2751 19.2804 27.2786 19.1048 27.2179 18.9466C27.1572 18.7885 27.0372 18.6602 26.8834 18.5893C26.2923 18.3539 25.6635 18.2272 25.0274 18.2153V16.4153H23.8774V18.3003C23.101 18.4109 22.3823 18.7731 21.8314 19.3313C21.3312 19.8637 21.0576 20.5698 21.0684 21.3003C21.0606 21.6632 21.1301 22.0236 21.2724 22.3576C21.4146 22.6915 21.6263 22.9914 21.8934 23.2373C22.5527 23.8034 23.3145 24.2379 24.1374 24.5173C25.3984 25.0303 26.2374 25.6023 26.2374 26.7313C26.2374 27.8043 25.3264 28.5533 24.0234 28.5533C23.318 28.5489 22.6216 28.3945 21.9804 28.1003C21.8928 28.0593 21.7971 28.0388 21.7004 28.0403Z" fill="#F3B700"/>
</svg>
