<svg xmlns="http://www.w3.org/2000/svg" xmlns:xlink="http://www.w3.org/1999/xlink" width="551.285" height="676.744" viewBox="0 0 551.285 676.744"><defs><clipPath id="a"><path d="M575.684,641.995v1.221q.038,4.611.264,9.172c5.73,112.653,101.7,199.33,214.349,193.6A204.236,204.236,0,0,0,983.743,655.056q.421-6.481.418-13.061A203.26,203.26,0,0,0,946.6,523.938q-2.936-4.166-6.114-8.181c-1.456-1.865-2.957-3.685-4.471-5.491C864.3,425.308,737.8,413.3,651.391,483.257c-2.459,1.987-4.881,4.044-7.239,6.144q-2.836,2.522-5.571,5.152a203.681,203.681,0,0,0-62.19,130.269Q575.682,633.323,575.684,641.995Z" transform="translate(-575.684 -437.751)" fill="none"/></clipPath></defs><g transform="translate(-18193.797 8555.071)"><g transform="translate(18270.123 -8441.237)"><path d="M490.758,287.707c0,112.141-90.909,203.051-203.048,203.051S84.657,399.849,84.657,287.707,175.567,84.658,287.71,84.658,490.758,175.566,490.758,287.707Z" transform="translate(-84.657 -84.658)" fill="#575a89"/></g><g transform="translate(18195.371 -8512.359)"><path d="M114.279,55.981l6.821,6.646,9.343-1.852-4.212,8.542,4.648,8.313-9.427-1.366-6.469,6.988-1.611-9.385-8.647-3.994,8.428-4.435Z" transform="translate(-11.05 -11.9)" fill="#fff"/><path d="M395.131,38.269l1.7,6.368,6.212,2.21-5.532,3.585-.183,6.589-5.12-4.154-6.321,1.863,2.367-6.152-3.726-5.438,6.585.352Z" transform="translate(-27.021 -10.889)" fill="#fff"/><path d="M259.354,48.213l.813,3.041,2.967,1.056-2.643,1.712L260.4,57.17l-2.446-1.984-3.019.89,1.131-2.937-1.78-2.6,3.145.168Z" transform="translate(-19.587 -11.456)" fill="#fff"/><path d="M345.354,48.213l.813,3.041,2.967,1.056-2.643,1.712L346.4,57.17l-2.446-1.984-3.019.89,1.131-2.937-1.78-2.6,3.146.168Z" transform="translate(-24.496 -11.456)" fill="#fff"/><path d="M288.272,14.317l.813,3.041,2.967,1.056-2.643,1.712-.087,3.147-2.446-1.983-3.019.89,1.131-2.938-1.78-2.6,3.146.168Z" transform="translate(-21.237 -9.522)" fill="#f2f2f2"/><path d="M352.272,14.317l.813,3.041,2.967,1.056-2.643,1.712-.088,3.147-2.446-1.983-3.019.89,1.131-2.938-1.78-2.6,3.146.168Z" transform="translate(-24.891 -9.522)" fill="#fff"/><path d="M319.736,36.827l.453,1.694,1.652.588-1.472.953-.049,1.753-1.362-1.105-1.681.5.63-1.636-.992-1.447,1.751.094Z" transform="translate(-23.161 -10.807)" fill="#fff"/><path d="M520.5,151.068l5.417,3.759,6.164-2.33-1.9,6.31,4.12,5.143-6.59.143-3.617,5.51-2.173-6.224-6.356-1.74,5.245-3.987Z" transform="translate(-60.577 -23.847)" fill="#fff"/><path d="M582.254,193.9l-.285,6.585,5.264,3.969-6.353,1.764-2.148,6.231-3.638-5.5-6.592-.115,4.1-5.159-1.925-6.3,6.175,2.307Z" transform="translate(-37.522 -19.772)" fill="#fff"/><path d="M233.794,9.231l-.286,6.585,5.263,3.969-6.352,1.764-2.149,6.23-3.639-5.5-6.589-.115,4.1-5.16-1.924-6.3,6.175,2.308Z" transform="translate(-17.632 -9.231)" fill="#fff"/><path d="M582.6,277.709a5.9,5.9,0,1,1,3.074,7.752A5.9,5.9,0,0,1,582.6,277.709Z" transform="translate(-72.199 -21.745)" fill="#fff"/><path d="M67.19,159.643a2.948,2.948,0,1,1,1.538,3.875A2.948,2.948,0,0,1,67.19,159.643Z" transform="translate(-8.893 -17.715)" fill="#f2f2f2"/><path d="M491.756,254.309a2.949,2.949,0,1,1,1.538,3.875A2.95,2.95,0,0,1,491.756,254.309Z" transform="translate(-33.128 -23.119)" fill="#fff"/><path d="M206.275,100.4a2.948,2.948,0,1,1,1.538,3.875A2.949,2.949,0,0,1,206.275,100.4Z" transform="translate(-16.832 -14.334)" fill="#7c7667"/><path d="M477.676,110.828a2.949,2.949,0,1,1,1.538,3.875A2.949,2.949,0,0,1,477.676,110.828Z" transform="translate(-32.324 -14.929)" fill="#fff"/><path d="M501.962,54.632A2.948,2.948,0,1,1,503.5,58.51,2.948,2.948,0,0,1,501.962,54.632Z" transform="translate(-33.71 -11.721)" fill="#fff"/><path d="M472.843,90.492a2.948,2.948,0,1,1,1.538,3.875A2.947,2.947,0,0,1,472.843,90.492Z" transform="translate(-32.048 -13.768)" fill="#fff"/><path d="M159.818,110.513a5.9,5.9,0,1,1,3.073,7.752A5.9,5.9,0,0,1,159.818,110.513Z" transform="translate(-14.167 -14.809)" fill="#fff"/><path d="M25.02,235.563a5.9,5.9,0,1,1,3.073,7.755A5.9,5.9,0,0,1,25.02,235.563Z" transform="translate(-6.472 -21.947)" fill="#fff"/><path d="M428.836,128.818a5.9,5.9,0,1,1,3.072,7.752A5.9,5.9,0,0,1,428.836,128.818Z" transform="translate(-29.522 -15.854)" fill="#fff"/><line x1="77.798" y1="84.915" transform="translate(37.463 58.183)" fill="none" stroke="#f80" stroke-miterlimit="10" stroke-width="7"/><line x1="16.793" y1="38.685" transform="translate(159.617 10.347)" fill="none" stroke="#f80" stroke-miterlimit="10" stroke-width="7"/><line x1="93.099" y2="81.211" transform="translate(428.767 63.971)" fill="none" stroke="#f80" stroke-miterlimit="10" stroke-width="7"/><line x1="70.891" y1="35.691" transform="translate(0 156.985)" fill="none" stroke="#f80" stroke-miterlimit="10" stroke-width="7"/><line y1="52.186" x2="30.129" transform="translate(375.411 48.382)" fill="none" stroke="#f80" stroke-miterlimit="10" stroke-width="7"/><path d="M67.19,159.643a2.948,2.948,0,1,1,1.538,3.875A2.948,2.948,0,0,1,67.19,159.643Z" transform="translate(-14.761 88.548)" fill="#f2f2f2"/></g><g transform="translate(18269.848 -8555.071)"><g transform="translate(237.968 0)"><path d="M439.366,469.211l-14.829.583-.833,10.817,3.788,9.522,12.119.077,3.457-10.548Z" transform="translate(-306.497 -149.888)" fill="#160a0b" fill-rule="evenodd"/><path d="M410.485,289.5l23.494,9.71,3.046,36.348-1.878,51.74,3.449,25.5,1.111,50.559-16.961.667L416.7,386.911l-9.725-54.289-2.51-.968Z" transform="translate(-305.398 -139.63)" fill="#2f110f" fill-rule="evenodd"/><path d="M410.642,289.5l-1.279,8.943,25.149,5.26-.376-4.493-23.494-9.71Zm16.128,107.3-6.071-9.686-10.516-53.634-2.985-.468,9.655,53.9,6.051,77.106,4.633-.18Z" transform="translate(-305.554 -139.63)" fill="#230c0c" fill-rule="evenodd"/><path d="M309.381,437.742l12.856,7.412-4.292,9.963-7.78,6.668L299.4,456.218l1.843-10.947Z" transform="translate(-299.401 -148.092)" fill="#160a0b" fill-rule="evenodd"/><path d="M453.567,215.671c1.939.4,4.8.088,6.745,1.174,9.681,5.413-3.2,22.024-5.493,21.9-20.957-1.162-31.486-5.974-50.952-10.776,4.1-16.609-11.378-27,7.487-21.556,8.562,1.531,16.274-2.188,16.479-11.413,5.987,1.6,11.122,2.868,17.163,4.236C440.887,207.5,445.276,213.042,453.567,215.671Z" transform="translate(-305.243 -134.236)" fill="#fbc8b1" fill-rule="evenodd"/><path d="M427.368,233.66c-12.231-3.394-14.5-4.874-25.62-7.617,4.1-16.61-8.609-25.32,10.253-19.871,8.561,1.532,15.6-1.948,15.806-11.172,2.992.8,5.772,1.514,8.556,2.2Z" transform="translate(-305.218 -134.236)" fill="#fbc8b1" fill-rule="evenodd"/><path d="M409.314,289.579,390.459,280.9,367.2,320.824l-20.975,45.422L329.98,388.808l-23.46,42.829,14.7,8.478,41.516-65.627,32.953-43.5,3.354.158Z" transform="translate(-299.808 -139.139)" fill="#230c0c" fill-rule="evenodd"/><path d="M409.314,289.579,390.459,280.9,367.2,320.824l-20.975,45.422L329.98,388.808l-23.46,42.829,5.14,2.963,24.891-43.3,9.673-10.444,2.4-11.961,23.413-45.13L382.88,314.7l10.8-8.935,14.706-12.431Z" transform="translate(-299.808 -139.139)" fill="#040202" fill-rule="evenodd"/><path d="M436.265,202.383c-.054-.009-.106-.022-.158-.035a9.535,9.535,0,0,1-3.811-1.429c-.9-.679-1.151-1.792-2.209-3.472-.9-1.429-2.735-3.113-2.948-4.482-.256-1.661.3-3.271.573-5.53-1.247.333-1.645-3.093-1.626-4.181.032-1.6-.424-4.458-.339-6.274.047-1.041.363-1.8.759-1.969.842-.354,1.5.115,2.207,1.818.37-1.207.76-2.449,1.053-3.8a34.044,34.044,0,0,1,1.727-6.31,7.7,7.7,0,0,1,3.577-3.944h0v0a13.16,13.16,0,0,1,3.148-1.148l.037,0c.07-.013.146-.03.221-.048.039-.008.078-.015.122-.025a1,1,0,0,1,.171-.032c.057-.009.114-.022.169-.033s.125-.019.186-.027a1.381,1.381,0,0,1,.162-.029c.077-.011.155-.023.232-.031.038-.006.077-.013.114-.017.11-.015.228-.027.342-.037l0,0a18.119,18.119,0,0,1,8.658,1.282,14.793,14.793,0,0,1,6.647,5.122,7.682,7.682,0,0,1,1.329,5.136,34,34,0,0,1-1.385,6.369c-.372,1.336-.6,2.626-.831,3.872,1.386-1.146,2.18-1.246,2.755-.549.274.332.2,1.153-.242,2.1-.771,1.648-2.5,3.962-3.221,5.4-.479.959-2.388,3.754-3.345,2.972-.768,2.068-1.031,3.7-2.008,5.039-.823,1.118-3.217,1.774-4.677,2.634-1.716,1.011-2.449,1.889-3.562,2.083A8.956,8.956,0,0,1,436.265,202.383Z" transform="translate(-306.613 -132.31)" fill="#fbc8b1" fill-rule="evenodd"/><path d="M454.227,158.405c-5.332-6.128-16.71-3.766-17.445-7.3-3.486,6.108-.757,5.284-2.648,6.938a10.3,10.3,0,0,0-3.512,5.061c-1.649,4.212-1.678,9.934-1.492,16.867,1.438-7.135,4.831-13.165,6-14.02,3.077-1.486,17.291.928,18.742,3.235,1.256,4.363.813,10.8-.211,15.2,4.069-8.269,9.562-18.57,3.224-22.712C456.814,160.826,455.842,159.581,454.227,158.405Z" transform="translate(-306.802 -131.731)" fill="#3f3d56" fill-rule="evenodd"/><g transform="translate(120.299 54.74)"><path d="M427.209,194.527c.493,3.19,5.383,9.99,8.692,10.673,2.745.565,10.872-3.348,12.5-5.563.978-1.334,1.241-2.971,2.008-5.039.273.225.623.155,1-.078l-.576-.141c-2.709-.312-4.5.122-6.381-1.7a21.1,21.1,0,0,0-2.214-2.471,157.915,157.915,0,0,0-5.232-1.292,21.515,21.515,0,0,0-3.112,1.158c-2.513.74-3.9-.477-6.442-1.461l-.473,0a.729.729,0,0,0,.8.383c-.274,2.259-.83,3.869-.573,5.53Zm17.617,2.116c-3.1,2.021-3.813,2.61-7.44,1.992-3.5-1.139-3.851-1.992-5.658-5.224,5.08.765,3.54-1.008,7.091-.585C442.159,194.1,439.976,194.958,444.826,196.643Z" transform="translate(-426.983 -188.612)" fill="#3f3d56" fill-rule="evenodd"/></g><path d="M453.391,212.068c4.849,3.833,7.973.158,14.29-1.387,2.912-.709,9.218.46,13.474.124a106.064,106.064,0,0,0,24.726-4.8l11.987-38.366,8.825-.934c-.225,4.6-5.531,35.41-8.606,46.212a13.621,13.621,0,0,1-8.48,8.928c-9.364,3.659-36.2,6.483-54.613,24.915Z" transform="translate(-308.191 -132.621)" fill="#fbc8b1" fill-rule="evenodd"/><path d="M417.106,207.215c-5.8,2.13-7.625-2.335-13.145-5.773-2.546-1.584-8.9-2.433-12.841-4.08-8.207-3.437-11.01-4.81-19.443-10.656l14.57-32.845-7.072-4.222L356.99,184.044c-3.364,5.782-3.65,6.608,4.105,13s31.86,21.165,43.981,39.818Z" transform="translate(-302.561 -131.647)" fill="#fbc8b1" fill-rule="evenodd"/><path d="M465.325,239.076c.374-.3,9.88-5.406,13.555-6.993.393-4.9,2-13.215,3.223-20.463a83.71,83.71,0,0,1-13.94-.633c-7.253-.682-9.1,3.22-14.974,2.455a12.3,12.3,0,0,1-5.957-2.349l-15.849,9.028-10.779-9.9c-.655.386-3.7-.677-5.231-.907-3.072-.455-6.543-4.572-10.846-6.368-7.032-2.932-11.28-3.064-15.475-4.8-3.342,5.014-6.277,13.007-9.182,16.028,17.773,11.45,16.961,17.353,16.353,24.386l-.008,33.3-.757,28.968,12.431,3.574,27.254,6.886,4.566-28.085,15.6-26.442C456.024,255.373,463.625,240.431,465.325,239.076Z" transform="translate(-303.995 -134.416)" fill="#e4e4e4" fill-rule="evenodd"/><path d="M468.469,239.891c-1.7,1.356-9.3,16.3-10.013,17.685l-15.6,26.442L438.286,312.1l-3.336-.842,3.921-28.994,22.74-45.706,16.826-4.036,3.639-.207c-.019.2-.037.391-.051.579-3.675,1.587-13.181,6.692-13.555,6.993Zm16.709-27.456h.07l-.007.03Z" transform="translate(-307.139 -135.232)" fill="#e4e4e4" fill-rule="evenodd"/><path d="M431.33,220.069l-10.977-14.611a16.732,16.732,0,0,1-6.05,1c-3.071-.459-5.473-1.719-9.777-3.512-7.032-2.932-11.281-3.062-15.475-4.8-3.342,5.014-6.277,13.007-9.182,16.028,17.773,11.45,16.961,17.353,16.353,24.386l-2.637,32.876-11.708,25.63,26.142,7.418C415.222,276.2,422.45,247.883,431.33,220.069Z" transform="translate(-303.995 -134.416)" fill="#d6d6d6" fill-rule="evenodd"/><path d="M380.277,214.658c-.137.165-.272.319-.408.461,17.773,11.45,16.961,17.353,16.353,24.386l-2.637,32.876-11.708,25.63,2.793.793L398.742,273l3.77-48.474Z" transform="translate(-303.995 -135.358)" fill="#028b9b" fill-rule="evenodd"/><g transform="translate(76.14)"><path d="M383.754,139.792l6.135-7.344,11.345-1.356-3.027,9.4,2.5.616-3.2,5.9-10.037,6.459-7.326-3.189Z" transform="translate(-380.15 -130.588)" fill="#fbc8b1" fill-rule="evenodd"/><path d="M397.38,143.1c2.618-3.281,3.448-5.973,7.24-5.144l-5.7,9.065-1.416.911Z" transform="translate(-381.134 -130.972)" fill="#fbc8b1" fill-rule="evenodd"/><path d="M389.085,135.44l.889-2.714c.72-.738.965-1.37,1.778-1.417l8.194-.7c.983-.173,2.1.021,1.931,1.237-.192,1.35-2.048,4.077-2.837,5.491C398.162,137.805,390.069,137.631,389.085,135.44Z" transform="translate(-380.66 -130.558)" fill="#fcd5c3" fill-rule="evenodd"/></g><path d="M450.365,211.707l5.436,3.566-12.9,12.015-8.411-6.321Z" transform="translate(-307.112 -135.19)" fill="#fff" fill-rule="evenodd"/><path d="M422.383,205.148l-5.577,1.191,6.278,16.19,10.485-1.886Z" transform="translate(-306.103 -134.816)" fill="#fff" fill-rule="evenodd"/><g transform="translate(203.04 8.988)"><path d="M531.929,158.187l-1.523-10.293-9.752-7.688-2.518,10.427-2.67-.848-.381,7.28,5.645,11.676,8.6,1.2Z" transform="translate(-514.753 -140.097)" fill="#fbc8b1" fill-rule="evenodd"/><path d="M518.527,154.007c-.563-4.527.189-7.49-3.794-8.873l.141,11.638.8,1.648Z" transform="translate(-514.733 -140.378)" fill="#fbc8b1" fill-rule="evenodd"/><path d="M530.186,151.438l.71-3.021c-.248-1.089-.114-1.817-.843-2.321l-7.2-5.293c-.808-.719-1.959-1.176-2.489.049-.588,1.364-.415,4.943-.486,6.7C520.429,148.48,528.028,152.908,530.186,151.438Z" transform="translate(-515.026 -140.09)" fill="#fcd5c3" fill-rule="evenodd"/></g></g><g transform="translate(0.199 112.67)"><path d="M575.684,641.995v1.221q.038,4.611.264,9.172c5.73,112.653,101.7,199.33,214.349,193.6A204.236,204.236,0,0,0,983.743,655.056q.421-6.481.418-13.061A203.26,203.26,0,0,0,946.6,523.938q-2.936-4.166-6.114-8.181c-1.456-1.865-2.957-3.685-4.471-5.491C864.3,425.308,737.8,413.3,651.391,483.257c-2.459,1.987-4.881,4.044-7.239,6.144q-2.836,2.522-5.571,5.152a203.681,203.681,0,0,0-62.19,130.269Q575.682,633.323,575.684,641.995Z" transform="translate(-575.68 -437.751)" fill="#011a43"/><path d="M681.088,460.581a1.213,1.213,0,0,0-.276.163c-1.1.9.276,2.643.113,4.073-.2,1.832-2.643,2.238-4.488,2.417s-4.182,1.681-3.308,3.321c4.638,1.6,9.335.025,14.073-1.794a203.26,203.26,0,0,1,37.557,118.057q0,6.587-.418,13.061a5.417,5.417,0,0,1-1.263.682c-1.388.527-3,.431-4.279,1.179-1.016.6-1.7,1.652-2.71,2.209-2.907,1.585-6.934-1.46-9.644.431a26.082,26.082,0,0,0-1.987,2.028c-2.5,2.167-6.612.711-9.5,2.334-1.862,1.042-2.823,3.128-3.823,5.019-2.484,4.722-6.516,9.364-11.836,9.736a32.1,32.1,0,0,0-5.031.167c-1.639.377-3.249,1.807-2.986,3.459.46,2.848-.945,5.964-.569,8.812.682,5.207,8.059,7.486,8.683,12.7a31.253,31.253,0,0,0,.2,3.434c.331,1.359,1.359,2.471,1.723,3.831.694,2.573-1.154,5.144-3.17,6.868s-4.446,3.237-5.558,5.655c-1.167,2.568-.6,5.554-.97,8.347-.837,6.1-6.1,10.615-11.518,13.534a12.034,12.034,0,0,0-4.5,3.279c-1.389,2.016-1.251,4.667-1.723,7.072-1.137,5.876-6.085,10.727-6.223,16.712-.1,4.266,2.267,8.13,3.685,12.145a28.039,28.039,0,0,1,1.263,13.115A205.14,205.14,0,0,1,627.4,760.893a7.271,7.271,0,0,1-1.042-2.334,4.6,4.6,0,0,1,2.154-4.776,11.467,11.467,0,0,1-3.99-2.559,3.915,3.915,0,0,1-.723-4.416c-2.442.305-5.349.456-6.959-1.418-1.293-1.5-1.209-3.752-.694-5.654.514-1.92,1.376-3.764,1.389-5.751a103.7,103.7,0,0,1-16.976-.573,11.027,11.027,0,0,1,5.165-6.474c-2.555-.431-4.877-3.489-5.68-5.947a15.139,15.139,0,0,1-.113-7.683,4.094,4.094,0,0,0,.083-2,3.931,3.931,0,0,0-2.028-1.962q-6.336-3.645-12.672-7.277a7.633,7.633,0,0,1-2.028-1.489c-1.317-1.568-1.125-3.919-.443-5.847s1.765-3.751,2.029-5.78c.778-6.072-5.726-10.434-7.922-16.16a24.305,24.305,0,0,1-1.192-7.072c-.184-2.585-.2-5.571,1.778-7.223,1.9-1.6,4.864-1.238,6.85-2.723,1.819-1.363,2.442-3.99,4.429-5.085,1.807-1,4.057-.364,6.072-.837,3.53-.82,5.755-4.889,9.364-5.265,2.029-.222,4.337.778,6-.4,1.477-1.058,1.531-3.153,1.807-4.931A13.782,13.782,0,0,1,623.18,628.11c2.1-.331,4.375-.209,6.169-1.359,1.807-1.167,2.626-3.35,4.057-4.977,2.279-2.6,5.893-3.526,9.268-4.32q6.875-1.606,13.738-3.22c2.434-.585,5.575-.891,6.892,1.246a9.408,9.408,0,0,1,.807,2.572,7.968,7.968,0,0,0,7.474,5.612,8.836,8.836,0,0,1,5.2-4.027,33.2,33.2,0,0,0,4.22-1,5.925,5.925,0,0,0,2.714-7.921c-.05-.1-.1-.2-.154-.293a7.365,7.365,0,0,1,1.263-8.849c2.334-2.1,5.709-2.61,8.85-2.4.82-1.79-.556-3.806-2.028-5.111s-3.279-2.572-3.6-4.517c-.514-3.058,3.388-5.374,6.349-4.475,2.961.92,4.848,3.793,6.1,6.629a19.959,19.959,0,0,0,2.46,4.709,4.835,4.835,0,0,0,4.671,1.92c2.443-.627,3.375-3.53,3.915-5.976a38.92,38.92,0,0,0,1.309-10.017,13.073,13.073,0,0,0-3.781-9.113c-4.044-3.726-10.267-3.362-15.729-2.764a4.008,4.008,0,0,0-.414-5.282,6.007,6.007,0,0,0-5.445-1.334,7.482,7.482,0,0,0-4.212,2.518c-1.556,1.886-2,4.458-3.166,6.6-1.184,2.15-3.823,3.986-5.976,2.831-1.874-1-2.167-3.584-1.71-5.654.472-2.053,1.46-4.069,1.292-6.181-.318-4.015-4.5-6.449-8.181-8.1s-7.892-3.89-8.477-7.892a7.341,7.341,0,0,0-.444-2.279,4.5,4.5,0,0,0-1.652-1.556c-10.74-7.1-21.677-14.3-33.96-18.172-.636-.209-.707.013-1.359-.138-.916-.527-.306-1.987.569-2.572s2.04-1.042,2.267-2.07c.15-.749-.293-1.5-.406-2.263a2.833,2.833,0,0,1,2.643-3,2.873,2.873,0,0,1,1.067.138c.987-1.305-.958-2.819-2.543-3.262a69.372,69.372,0,0,0-14.516-2.363,2.616,2.616,0,0,0-1.657.276,1.97,1.97,0,0,0-.125,2.7,15.332,15.332,0,0,0,2.212,2.016,6.067,6.067,0,0,1,1.581,6.1c-2.568,1.3-5.349,2.651-8.2,2.2-2.831-.46-5.349-3.655-4.015-6.2,1.238-2.375,4.977-2.915,5.613-5.516.753-3.04-3.555-5.75-2.585-8.724.419-1.3,1.724-2.083,2.727-3.015a8.219,8.219,0,0,0,1.79-9.088,10.351,10.351,0,0,0,9.059-2.831c2.166-2.183,3.889-5.642,6.976-5.529,2.819.083,5.253,3.375,7.892,2.375.652-.251,1.333-.753,1.957-.46a1.614,1.614,0,0,1,.736,1.209c.669,3.208-.485,6.863,1.268,9.644,1.9,3.011,6.307,3.429,8.611,6.152,1.251,1.472,1.74,3.458,2.89,5.018s3.584,2.556,4.977,1.192a6.842,6.842,0,0,1,1.861-8.335,17.72,17.72,0,0,1,4.111-2,24.505,24.505,0,0,0,4.6-2.56,4.544,4.544,0,0,0,1.681-1.806,4.156,4.156,0,0,0-.113-2.861,11.692,11.692,0,0,0-9.293-7.7c-1.836-.251-3.977-.167-5.2-1.573-.64-.736-.97-1.861-1.916-2.154a2.815,2.815,0,0,0-1.765.209c-2.292.807-4.571,1.614-6.863,2.417a4.733,4.733,0,0,1-2.447.406,1.648,1.648,0,0,1-1.43-1.74c.222-1.138,1.974-1.681,1.807-2.832a1.809,1.809,0,0,0-.573-.974,24.54,24.54,0,0,0-19.464-7.683c-.861,1.43.5,3.112,1.657,4.321,1.137,1.221,2.053,3.392.664,4.32a3.623,3.623,0,0,1-1.819.418,15.857,15.857,0,0,0-4.864,1.472c-2.376,1.029-4.709,2.167-6.989,3.392a8.8,8.8,0,0,0-.167-4.5,3.054,3.054,0,0,0-3.614-1.957c-1.359.527-2.054,2.334-3.513,2.5-1.932.222-2.693-2.639-1.891-4.421s2.418-3.25,2.543-5.207c.1-1.309-.4-2.932.64-3.727a2.8,2.8,0,0,1,1.237-.443q13.086-2.4,26.189-4.805c1.556-.293,3.793-.071,3.86,1.5.042.891-.748,1.765-.4,2.572.377.862,1.6.791,2.489,1.1a3.381,3.381,0,0,1,1.945,3.572,9.734,9.734,0,0,1-1.64,4.015c1.706-.706,4.279-.832,5.985-1.556a23.278,23.278,0,0,1,1.5-5.763,2.037,2.037,0,0,1,2.309-1.723,1.954,1.954,0,0,1,.347.083c2.25.347,4.5.678,6.751,1.025a2.643,2.643,0,0,1,1.543.6c.874.933.012,2.417.042,3.7a3.463,3.463,0,0,0,2.681,2.987,10.115,10.115,0,0,0,4.278-.054c3.158-.485,6.294-.974,9.448-1.46a15.467,15.467,0,0,1-7.139-4.781c-1.251-1.472-1.92-4.224-.113-4.918a4.342,4.342,0,0,1,1.639-.126c4.283.029,7.658-3.542,11.66-5.056a11.464,11.464,0,0,1,3.931-.724Z" transform="translate(-316.278 -382.575)" fill="#f80"/><path d="M610.162,618.743a5.015,5.015,0,0,0,4.249,2.016c4.349-.377,6.181-6.642,10.489-7.353a1.685,1.685,0,0,1,1.142.113c.64.347.748,1.209.79,1.932.18,3.584.335,7.306-1.07,10.614-2.041,4.835-7.336,8.891-6.223,14.019,5.976-2.765,9.088-9.477,10.489-15.909,1.418-6.432,1.639-13.187,4.169-19.272,1.933,2.46,5.96.431,7.713-2.154,1.664-2.442,2.694-5.278,4.3-7.766,1.615-2.472,4.086-4.7,7.03-4.835,3.1-.138,5.8,1.987,8.156,4a18.867,18.867,0,0,1,5.073,5.642c1.652,3.334,1.221,7.252,1.305,10.962.083,4,.932,8.239,3.667,11.183s7.783,3.961,10.8,1.3a12.148,12.148,0,0,0,3.011-5.433,264.708,264.708,0,0,0,8.172-29.146c.5,2.25,2.488,5.153,4.375,3.835a3.946,3.946,0,0,0,1-1.309c3.525-5.96,10.041-9.544,16.641-11.7,6.587-2.137,13.522-3.141,20.037-5.5a51.205,51.205,0,0,0,10.405-5.186,8.2,8.2,0,0,1,.5,8.365,6.7,6.7,0,0,1-7.533,3.153c-1.442-.472-2.668-1.472-4.1-1.97s-3.363-.251-3.986,1.137c-.615,1.322.305,2.919-.155,4.308-.682,2.1-3.86,2.263-4.973,4.182a3.865,3.865,0,0,0,1.042,4.475,18.814,18.814,0,0,0,4.195,2.585c4.667,2.6,7.988,7.026,12.074,10.472,4.086,3.463,9.85,5.976,14.714,3.768-1.155-5.88,5.834-10.184,7.126-16.035.431-1.932.209-3.973.807-5.851.874-2.722,3.292-4.583,5.266-6.641a26.093,26.093,0,0,0,7.156-18.963c-.113-2.417-.556-4.877,0-7.239.544-2.346,2.5-4.625,4.919-4.529,5.516.251,12.475.665,15.365-4.044,1.041-1.681,1.489-4.14-.013-5.433-1.054-.9-2.614-.82-3.985-.678-4.158.4-8.3.82-12.451,1.221-2.9.276-6.044.514-8.544-1s-3.584-5.558-1.263-7.352c1.681-1.3,4.709-1.234,5.207-3.3.406-1.74-1.514-3.7-.473-5.157.736-1.029,2.4-.749,3.421.029a22.213,22.213,0,0,0,2.873,2.513c1.986,1.029,4.349.042,6.491-.623s5-.723,6.027,1.263c1.171,2.208-1.012,5.127.125,7.348,1.531,2.932,6.671,1.267,8.812,3.793,2.443,2.89-1.669,7.227-.849,10.92a6.809,6.809,0,0,0,6.712-.372,6.507,6.507,0,0,0,2.806-6.06c-.2-1.664-1.07-3.375-.489-4.944a5.787,5.787,0,0,1,2.932-2.685q6.047-3.35,12.091-6.683c1.125,2.087-.293,4.655-2.07,6.227-1.765,1.556-3.991,2.735-5.157,4.793a6.3,6.3,0,0,0,2.363,8.31,1.455,1.455,0,0,0,1.209.2,1.666,1.666,0,0,0,.778-1.041c2.124-5.458,5.336-10.836,10.447-13.684,5.128-2.861,12.476-2.267,15.838,2.531.794,1.137,1.334,2.442,2.028,3.651,3.685,6.407,11.6,9.435,19,9.239a3.636,3.636,0,0,0,2.07-.485c1.192-.82,1.138-2.568.958-4.015-.264-2.041-.515-4.069-.778-6.114a4.89,4.89,0,0,0-1.35-3.346c-1.372-1.083-3.346-.406-5.1-.431a6.418,6.418,0,0,1-5.847-4.517,7.251,7.251,0,0,1,2.028-7.223c.791-.753,1.861-1.7,1.443-2.71a2.254,2.254,0,0,0-1.568-1.058c-3.128-.9-6.449-1.138-9.519-2.221s-6.073-3.266-6.809-6.449c-.222-.97-.318-2.154-1.192-2.639a3.879,3.879,0,0,0-1.393-.276,6.767,6.767,0,0,1-5.792-7.047c-1.472-1.024-3.542-.263-4.972.837s-2.681,2.543-4.421,3.015c-3.237.887-6.361-1.986-9.724-2-1.417,0-2.877.5-4.195.017-1.351-.489-2.154-1.824-3.182-2.806-1.042-1-2.849-1.6-3.806-.531.276-2.012.539-4.015.82-6.014a11.831,11.831,0,0,1-9.632-1.752c3.5-1.179,6.988-2.363,10.493-3.542a2.249,2.249,0,0,0,.983-.527c.766-.82,0-2.1-.611-3.028-1.484-2.237-1.735-5.922.711-7.03,1.664-.766,3.572.151,5.169,1.041,2.556,1.418,5.111,2.848,7.666,4.266.239,1.46-1.539,2.292-2.639,3.262a4.429,4.429,0,0,0,2.89,7.741,5.551,5.551,0,0,0-.987,4.68l5.157.376a2.193,2.193,0,0,0,1.665-.334c.556-.485.473-1.347.615-2.07a4.468,4.468,0,0,1,3.777-3.292,13.034,13.034,0,0,1,5.265.485,3.2,3.2,0,0,0,2.279-.054,2.282,2.282,0,0,0,.891-1.138,5.816,5.816,0,0,0-1.167-5.587,32.179,32.179,0,0,0-4.391-4.044,25.545,25.545,0,0,1-7.629-11.807c-2.835-1.2-5.768-2.806-8.616-4a26.434,26.434,0,0,0-14.17-2.74c-3.195.059-6.407.113-9.6.184a23.06,23.06,0,0,0-8.407,1.209c-2.626,1.083-4.943,3.429-5.123,6.265a1.925,1.925,0,0,0,.622,1.765,2.211,2.211,0,0,0,1.209.276c2.656.083,3.781.753,6.432.849-1.681,1.79-3.572,3.68-6.014,4-4.308.552-7.406-3.906-9.393-7.783a3.791,3.791,0,0,1-3.961,3.517,8.041,8.041,0,0,1-2.986-1.167,58.752,58.752,0,0,0-27.858-7.2,3,3,0,0,0-2.292-3.308c-1.987-.389-3.765,1.322-4.727,3.1-.941,1.777-1.539,3.835-3.07,5.169-1.513,1.334-4.445,1.263-5.043-.652-.581-1.849,1.351-3.434,2.948-4.529s3.291-3.1,2.208-4.714c-8.172-1.819-16.411-3.626-24.788-3.985a10.508,10.508,0,0,1-4.165-.724,3.233,3.233,0,0,1-1.945-3.43,9.471,9.471,0,0,0,9.862-3.726c-8.6-.707-17.6-1.334-25.867.6l-7.24,6.143c1.376,1.431,3.208,2.777,2.208,4.207a3.069,3.069,0,0,1-2.543.874c-1.752.03-3.5.071-5.236.071a203.681,203.681,0,0,0-62.19,130.269c2.919-.113,5.6,3.585,5.224,6.809-.443,3.735-3.141,6.738-5.073,9.962a15.992,15.992,0,0,0-.861,1.623Z" transform="translate(-609.895 -404.107)" fill="#f80"/><g transform="translate(0.004)"><g transform="translate(0)" clip-path="url(#a)"><g transform="translate(-135.967 -38.885)" opacity="0.2"><path d="M698.4,911.682a197.222,197.222,0,0,0,173.823-97.94l.727-1.192c51.413-88.626,57.95-99.664,64.311-110.315s13.208-22.225,64.553-110.725a66.492,66.492,0,0,1,72.161-34.713c6.106,1.89,22.254,6.964,20.6,39.481l-17.736,300.809,126.426,7.466,17.749-301.164a159.337,159.337,0,0,0-109.449-167.951A191.8,191.8,0,0,0,893.493,525.7l-.728,1.2c-51.379,88.563-57.95,99.6-64.311,110.282-6.9,11.405-13.174,22.191-64.553,110.755a66.56,66.56,0,0,1-72.257,34.713c-6.106-1.924-22.254-6.964-20.6-39.481l17.181-288.049L561.8,447.556,544.57,736.018A159.346,159.346,0,0,0,653.987,904.036,172.074,172.074,0,0,0,698.4,911.682Z" transform="translate(-543.715 -428.454)" fill="#fff"/></g></g></g></g><g transform="translate(-38 81.989)"><path d="M136.566,303.11c.84,7.576,2.355,11.864,6.547,12.785,2.658.586,3.013,3.064,6.4,6,5.151,4.457,10.989,6.67,12.357,10.781.928,2.783.785,9.584-3.988,13.125,2.047,21.192.6,29.3-2.53,41.318A75.656,75.656,0,0,0,153.1,399.2l-30.2-7.478c6.873-7.559,8.265-18.187,8.22-22.909-.087-9.277-4.566-12.6-12.393-23.306-4.265-5.831-10.287-19.552-9.126-25.556,1.381-3.526,4.866-3.448,6.7-3.258,2.727.283,5.651.751,8.074-.352,3.756-1.712,2.345-4.774.52-11.1Z" transform="translate(-46.028 -228.259)" fill="#fbc8b1" fill-rule="evenodd"/><path d="M149.225,398.306l-26.329-6.52c6.873-7.559,8.265-18.187,8.22-22.909-.087-9.277-4.566-12.6-12.393-23.306-4.265-5.831-10.287-19.552-9.126-25.556,1.381-3.526,4.866-3.448,6.7-3.258,2.727.283,5.651.751,8.074-.352,3.756-1.712,2.345-4.774.52-11.1l5.684-1.037c4.469,23.491,18.9,30.9,20.963,61.628A129.056,129.056,0,0,1,149.225,398.306Z" transform="translate(-46.028 -228.325)" fill="#fac1a4" fill-rule="evenodd"/><path d="M150.43,518.362c12.3-10.213,14.8-18.832,12.909-22.144-2.285-4-11.643-.9-26.45,8.106C112.675,519.3,108.329,541.78,94.5,556.357c-2.665,2.658-6.533,2.547-8.415,5.2-3.566,5.019,1.794,5.423,5.719,10.052s1.884,9.822,4.205,13.439c2.041,3.18,5.744,8.9,7.247,7.631,0-9.1-4.562-18.53,1.7-30.382C112.628,547.786,141.895,525.443,150.43,518.362Z" transform="translate(-44.628 -239.184)" fill="#fac1a4" fill-rule="evenodd"/><path d="M150.985,513.16c6.444-5.352,10.2-10.265,12.039-14.205a10.585,10.585,0,0,0,1-2.654,10.823,10.823,0,0,0,.43-2.652c.051-.56.088-1.153.1-1.78.781-28.476-5.173-49.866-12.765-76.762a24.041,24.041,0,0,1-.278-11.141l-3.6-.586-24.985,7.556c8.357,28.355,16.195,54.925,23.049,83.336q-3.9,2.03-8.538,4.852c-24.214,14.977-28.974,36.686-42.8,51.266l8.426,12.539C108.371,548.81,137.577,524.29,150.985,513.16Z" transform="translate(-45.183 -233.983)" fill="#eee" fill-rule="evenodd"/><path d="M123.348,411.262l-.415.123c8.357,28.355,16.195,54.925,23.049,83.336q-3.9,2.03-8.538,4.852c-24.214,14.977-28.974,36.686-42.8,51.266l4.024,5.991c20.566-25.849,26.207-43.474,51.209-54.239,5.825-3.594,6.4-5.753,5.622-12.258L150.05,444.91Z" transform="translate(-45.183 -234.432)" fill="#eee" fill-rule="evenodd"/><path d="M60.67,223.728c0,8.845-.491,17.072.726,26.108,2.5,18.567,10.085,22.746,25.236,28.575-14.554-1.892-25.549-5.428-28.282-28.285-.848,25.443,14.333,33.48,25.437,36.488,12.325,3.335,16.99,8.571,28.078,11.974,7.415,2.276,16.79,5.122,23.652-.709,15.949-13.546,10.343-38.71,1.08-48.4C114.242,226.1,72.8,266.373,60.67,223.728Z" transform="translate(-43.109 -223.728)" fill="#2f110f" fill-rule="evenodd"/><path d="M60.67,223.728c0,8.845-.491,17.072.726,26.108,2.5,18.567,10.085,22.746,25.236,28.575-14.554-1.892-25.549-5.428-28.282-28.285-.848,25.443,14.333,33.48,25.437,36.488,12.325,3.335,16.99,8.571,28.078,11.974,7.415,2.276,11.086,5.852,13.79-2.738-1.891-3.539-.92-23.209-10.234-30.417C98.823,252.589,63.085,277.253,60.67,223.728Z" transform="translate(-43.109 -223.728)" fill="#230c0c" fill-rule="evenodd"/><path d="M121.938,489.721c9.547,9.367,16.893,12.543,20.694,12.216,6.236-.533,3.765-11.438-8.112-27.12-17.368-22.559-40.174-24.593-56.084-36.861-2.916-2.377-3.2-6.235-6.026-7.84-5.358-3.034-5.213,2.34-9.416,6.713s-9.582,2.877-12.942,5.557c-2.954,2.354-8.271,6.621-6.852,7.986,9.052-.928,17.968-6.425,30.394-1.4C88.813,455.116,114.018,481.953,121.938,489.721Z" transform="translate(-42.233 -235.458)" fill="#fac1a4" fill-rule="evenodd"/><path d="M76.2,435.1c-.239-3.721-2.305-6.537-6.622-6.36-3.021.125-3.563,4.082-7.033,7.69-4.256,4.433-9.7,2.912-13.1,5.626-2.993,2.385-8.452,7.179-7.016,8.563l8.692-1.843c2.725-1.809,9.392-6.386,14.677-8.651C69.323,438.608,72.465,437.019,76.2,435.1Z" transform="translate(-42.189 -235.429)" fill="#2f110f" fill-rule="evenodd"/><path d="M102.894,332.445,91.357,358.526,64.09,391.014l5.064,1.91L99.9,365.078l12.888-20.931c3.146-2.531,2.128-3.709,5.82-1.876l-1.884-10.551c-4-6.017-6.075-13.008-7.75-12.692C105.655,319.654,104.172,329.554,102.894,332.445Z" transform="translate(-43.439 -229.167)" fill="#fac1a4" fill-rule="evenodd"/><path d="M108.791,355.6l6.55-10.641a13.973,13.973,0,0,0,1.181-1.056l.937,1.169c.491.059,2.611-2.529,3.675-2-.9-3.608-1.652-7.05-2.436-9.758-1.759,4.44-2.973,8.657-5.076,13.346Z" transform="translate(-45.99 -229.983)" fill="#f4b18f" fill-rule="evenodd"/><g transform="translate(65.479 39.973)"><path d="M136.187,303.291a21.1,21.1,0,0,0,3.243-5.882,18.116,18.116,0,0,0,1.286-5.443c1.314.015,1.637-1.117,1.682-2.63.066-2.222.517-4.506.534-6.448.02-2.373-1.713-3.373-2.615-1.255a24.761,24.761,0,0,0-1.332-5.713c-2.517-6.619-8.034-10.959-15.318-9.525-8.064,1.586-11.392,5.55-11.081,13.5a33.718,33.718,0,0,0,.8,6.43c-1.359-.874-2.261.591-1.453,2.553.736,1.792,2.007,3.748,2.895,5.783.587,1.345,1.282,2.259,2.43,1.861a18.518,18.518,0,0,0,3.867,5.295,22.2,22.2,0,0,0,4.307,3.4c3.019,1.748,4.61,2.472,6.054,2.191C132.966,307.12,134.284,305.78,136.187,303.291Z" transform="translate(-111.631 -266.12)" fill="#fac1a4" fill-rule="evenodd"/></g><path d="M135.688,483.453l9.825,16.72c8.712-.736,8.228-6.18,8.425-23.5.234-20.69-1.558-44.832-3.728-58.416-1.05-6.193-2.4-8.821-.69-15.3-6.71-1.239-11.7-2.221-24.9-6.98-3.036,3.6-6.5,6.149-8.79,10.039-6,10.181,1.068,20.046,5.978,28.935C130.653,450.967,123.369,462.485,135.688,483.453Z" transform="translate(-46.261 -233.56)" fill="#eee" fill-rule="evenodd"/><path d="M135.688,483.453l1.033,1.758,2.512-4.189c.151-19.88-12.617-47.287-17.144-62.491-1.878-6.31-.752-11.992,3.855-22.079l-1.326-.475c-3.036,3.6-6.5,6.149-8.79,10.039-6,10.181,1.068,20.046,5.978,28.935C130.653,450.967,123.369,462.485,135.688,483.453Z" transform="translate(-46.261 -233.56)" fill="#eee" fill-rule="evenodd"/><path d="M62.945,393.59l-9.474.379L43.3,401.454l1.1,2.173,9.52-3.94,8.814,2.281,5.47-5.221-2.582-4.56Z" transform="translate(-42.252 -233.344)" fill="#fbc8b1" fill-rule="evenodd"/><path d="M140.7,279.609c-4.04.811-8,1.718-11.96,2.627l-1.288-3.715.868,3.811c-2.767.636-5.532,1.272-8.319,1.864l-2.272-8.606,1.559,8.757c-2.03.428-4.076.837-6.142,1.212-4.25-13.3,4.234-19.334,10.186-20.241C128.724,264.5,138.035,265.218,140.7,279.609Z" transform="translate(-46.173 -226.089)" fill="#2f110f" fill-rule="evenodd"/><path d="M141.781,277.755a49.028,49.028,0,0,1-.146,12.546c-.859-6.368-.807-7.822-5.657-13.272Z" transform="translate(-47.542 -226.77)" fill="#2f110f" fill-rule="evenodd"/><path d="M111.26,283.271c2.486,3.058,2.8,7.66,5.9,11.358-1.724-5.91-2.077-8.078-1.428-14.3Z" transform="translate(-46.131 -226.959)" fill="#2f110f" fill-rule="evenodd"/><g transform="translate(91.265 85.979)"><path d="M177.6,336.126l43.3,12.958-3.391,4.667-43.68-6.79c-3.631-1.709-16.163-8.1-25.161-15.293-2.509-2.007-2.327-2.953-4.59-3.587-2.455-.685-5.619-6.079-5.023-7.532,2.019-4.936,2.343-7.826,10.553-3.58C155.238,319.878,164.186,330.605,177.6,336.126Z" transform="translate(-138.978 -314.912)" fill="#fbc8b1" fill-rule="evenodd"/><path d="M224.626,349.352l8.658-5.208,13.434.707.293,2.577L236.23,349.5l-6.514,7.191-7.925-1.449-.372-5.567Z" transform="translate(-143.684 -316.581)" fill="#fbc8b1" fill-rule="evenodd"/></g><path d="M91.538,561.888c-3.758-.173-6.8,1.546-7.089,5.8-.2,2.978,3.715,3.941,6.963,7.738,3.99,4.663,1.885,9.836,4.241,13.469,2.071,3.2,6.3,9.071,7.838,7.815l-.915-8.728c-1.525-2.867-5.4-9.908-7.111-15.335C94.326,569.018,93.068,565.762,91.538,561.888Z" transform="translate(-44.6 -243.03)" fill="#230c0c" fill-rule="evenodd"/><path d="M141.837,314.532c2.764,2.773,6.371,6.5,8.124,8.014,5.148,4.455,10.989,6.67,12.357,10.781.928,2.783.785,9.584-3.988,13.125,2.047,21.192.6,29.3-2.53,41.318a75.66,75.66,0,0,0-2.259,12.08l-30.2-7.478c6.873-7.559,8.265-18.187,8.22-22.909-.087-9.277-4.566-12.6-12.393-23.306-.607-.832-1.253-1.822-1.906-2.93,10.173-6.748,5.4-21.885,5.4-25.783a7.678,7.678,0,0,0,2.145-.6c5.768,10.308,7.333,12.222,14.984,12.24,3.933-1.553,3.266-7.354.444-14.54Z" transform="translate(-46.474 -228.911)" fill="#f86d70" fill-rule="evenodd"/><path d="M126.336,357.067c-1.91-2.581-4.317-5.5-7.166-9.4-.607-.832-1.253-1.822-1.906-2.93a13.391,13.391,0,0,0,3.747-3.7C122.294,346.36,123.836,352.374,126.336,357.067Z" transform="translate(-46.474 -230.424)" fill="#ef6669" fill-rule="evenodd"/><path d="M143.95,281.182c-.262-21.058-9.092-31.687-19.942-33.99-15.6-3.315-41.572,9.741-56.059-6.623,17.506,21.924,40.531,7.98,55.634,11.582C131.958,254.148,141.114,261.634,143.95,281.182Z" transform="translate(-43.659 -224.689)" fill="#230c0c" fill-rule="evenodd"/><path d="M123.547,490.214c10.911,10.7,18.987,13.535,22.326,11.868,4.369-2.179,1.1-12.456-9.744-26.771-17.368-22.559-38.723-26.186-54.924-37.44L71.143,449.023C86.359,455.174,115.626,482.447,123.547,490.214Z" transform="translate(-43.841 -235.951)" fill="#eee" fill-rule="evenodd"/><path d="M123.547,490.622c10.911,10.705,18.987,13.535,22.326,11.868a3.051,3.051,0,0,0,1.413-1.441,31.756,31.756,0,0,1-6.713-4.489c-6.132-4.862-12.74-12.278-19.289-17.8-14.912-12.592-29.06-22.641-46.152-33.746l-3.989,4.421C86.359,455.581,115.626,482.854,123.547,490.622Z" transform="translate(-43.841 -236.359)" fill="#eee" fill-rule="evenodd"/></g><g transform="translate(230.901 361.591)"><path d="M490.572,557.571c2.99,2.54,7,2.1,9.176,4.7,4.123,4.918-1.414,5.787-5.1,10.923S493.5,583.554,491.39,587.5c-1.856,3.471-5.229,9.727-6.9,8.531-.756-9.456,3.2-19.632-4.294-31.426Z" transform="translate(-392.62 -281.83)" fill="#fac1a4" fill-rule="evenodd"/><path d="M494.144,559.38c3.857-.457,7.136,1.131,7.768,5.591.444,3.117-3.513,4.422-6.559,8.66-3.738,5.2-1.153,10.5-3.293,14.5-1.881,3.517-5.768,10.016-7.456,8.8l.248-9.256c1.342-3.135,4.777-10.833,6.1-16.681C491.84,567.1,492.876,563.574,494.144,559.38Z" transform="translate(-392.872 -281.929)" fill="#2f110f" fill-rule="evenodd"/><path d="M429.837,526.363c-8.64-6.079-13.232-10.624-15.211-14.7-1.005-2.072-.247-4.322.114-5.577,1.412-4.893,11.283-3.85,28,4.564,26.4,13.549,30.673,29.617,45.268,44.1l-9.538,12.419C469.3,552.735,439.294,533.014,429.837,526.363Z" transform="translate(-388.849 -278.724)" fill="#2f2e41" fill-rule="evenodd"/><path d="M436.212,505.788l-19.63,4.833c-5.79-7.041-1.37-10.64,11.412-23.386,15.274-15.227,32.18-26.142,43.9-34.4,3.89-3.055,5.381-10.681,5.5-12.442,7.184.621,10.383,3.492,20.311,4.908,2.85,5.455,7.22,10.765,7.565,19.007.274,6.477-4.373,18.634-14.642,20.354C462.691,489.334,464.535,498.816,436.212,505.788Z" transform="translate(-388.846 -275.141)" fill="#2f2e41" fill-rule="evenodd"/><path d="M436.8,506.058l-5.578,1.306-6.777-3.422C439.8,498.359,449.868,492.289,463,482.7L491.124,451.7l4.424-6.595c.859.166,1.77.319,2.75.458,2.85,5.455,7.22,10.765,7.565,19.007.274,6.477-4.373,18.634-14.642,20.354C463.283,489.6,465.2,499.406,436.8,506.058Z" transform="translate(-389.438 -275.411)" fill="#2f2e41" fill-rule="evenodd"/><path d="M436.774,507.823q3.062,1.325,6.52,3.063c26.4,13.549,30.673,29.617,45.268,44.1l-3.859,5.026c-24.607-28.7-37.961-35.235-60.9-52.749C428.263,507.339,432.509,507.541,436.774,507.823Z" transform="translate(-389.401 -278.958)" fill="#2f2e41" fill-rule="evenodd"/><path d="M543.752,326.182l22.06-38.316,3.682,4.276-16.27,40.066c-2.443,3.074-11.058,17.11-19.425,24.662-5.785,5.224-7.106,12.96-11.147,15.85-6.146-8.863-11.8-14.411-3.426-24.183C523.262,343.83,535.484,337.712,543.752,326.182Z" transform="translate(-394.607 -266.435)" fill="#fac1a4" fill-rule="evenodd"/><path d="M515.992,313.714c-.988-14.733-10.876-20.358-22.3-18.756-13.4,1.884-19.44,9.969-24.37,19.949-4.029,8.152-6.636,11.217-9.7,12.26-3.511,1.192-8.169-3.169-15.337-2.141-8.448,1.211-10.916,5.587-14.961,13.278-2.535,4.82-6.495,9.17-15.156,6.706,7.461,9.479,17.135,13.807,25.018,8.745,6.8-4.357,7.516-6.82,21.248.166,14.463,7.351,25.627,2.987,33.938-8.608,3.032-.629,10.934-.4,17-6.157C516.744,334.055,520.868,323.571,515.992,313.714Z" transform="translate(-388.851 -266.825)" fill="#745a45" fill-rule="evenodd"/><path d="M515.992,314.5c-.988-14.733-17.626,1.442-27.592,7.249-10.227,5.964-9.919,4.526-14.847,14.507-5.774,11.688-20.182-1.463-28.056.138-11.193,2.276-7.819,24.566-31.328,9.4,7.461,9.479,17.135,13.807,25.018,8.745,6.8-4.357,7.516-6.82,21.248.166,14.463,7.351,25.627,2.987,33.938-8.608,3.032-.629,10.934-.4,17-6.157C516.744,334.842,520.868,324.357,515.992,314.5Z" transform="translate(-388.851 -267.611)" fill="#604029" fill-rule="evenodd"/><path d="M465.046,512.96l-16.735,10.168c-7.452-5.253-5.054-10.2,3.889-25.878,10.689-18.733,24.092-33.742,33.2-44.815,2.941-3.976,2.354-11.726,2-13.455,7.092-1.3,10.937.613,20.885-.653,4.2,4.5,9.818,8.461,12.337,16.318,1.983,6.171.728,19.123-8.719,23.508C486.21,490.071,489.973,497.815,465.046,512.96Z" transform="translate(-390.547 -275.023)" fill="#2f2e41" fill-rule="evenodd"/><path d="M508.592,438.485c.448-.049,0-.1.472-.159,4.2,4.5,9.818,8.461,12.337,16.318,1.983,6.171.728,19.123-8.719,23.508-25.443,11.8-21.488,20.4-46.127,34.39l-9.079-.218c9.7-7.752,23.416-17.773,35.932-27.478,6.617-5.132,15.638-9.657,20.255-13.412C521.978,464.671,519.889,451.788,508.592,438.485Z" transform="translate(-391.323 -275.023)" fill="#2f2e41" fill-rule="evenodd"/><path d="M497.748,341.185c-.462,11.743-6.121,13.879-12.667,20.562L483.6,387.625l31.375-8.023c-1.439-3.679,5.965-24.458,4.058-24.26-2.84.3-5.892.785-8.417-.365-3.914-1.786-2.442-4.977-.539-11.576Z" transform="translate(-392.814 -269.478)" fill="#fac1a4" fill-rule="evenodd"/><path d="M484.611,440.416l27.446-6.8c-7.164-7.881-8.616-18.955-8.57-23.881.092-9.668,4.76-13.133,12.918-24.292,4.445-6.076,10.723-20.378,9.511-26.639-1.438-3.679-5.069-3.6-6.978-3.4-2.841.3-5.892.785-8.417-.365-3.914-1.786-2.442-4.977-.539-11.576l-5.926-1.077c-4.66,24.487-19.706,32.213-21.851,64.238A134.432,134.432,0,0,0,484.611,440.416Z" transform="translate(-392.72 -269.547)" fill="#fac1a4" fill-rule="evenodd"/><path d="M515.825,388.585c.791-1.032,1.623-2.136,2.494-3.328a59.9,59.9,0,0,0,6.1-11.312c2.834-3.566,4.54-9.752,9.413-14.151,6.329-5.712,12.8-15.132,16.633-20.716l-6.224,6.8-10.281,10.432-9.523,3.478-2.723,8.769-6.2,15.722Z" transform="translate(-394.636 -269.358)" fill="#f4b18f" fill-rule="evenodd"/><g transform="translate(0 90.648)"><path d="M470.162,374.077l-19.833,24.954-38.655,27.454,4.94,3.493,41.112-21.449,19.842-19.006c4.115-1.851,3.345-3.41,6.823-.388l.939-11.943c-2.628-7.634-2.905-15.784-4.805-15.915C476.755,361.021,472.362,371.309,470.162,374.077Z" transform="translate(-388.709 -361.273)" fill="#fac1a4" fill-rule="evenodd"/><path d="M410.783,428.472l-10.355-2.259-13.11,5.224.576,2.658L399.3,432.52l8.891,4.954,7.387-4.107-1.5-5.657Z" transform="translate(-387.318 -364.98)" fill="#fbc8b1" fill-rule="evenodd"/></g><path d="M567.058,287.182l-3.015-9.41,3.689-12.635,2.519.3-.452,10.732,5.386,7.817-3.158,7.218-5.386-.894Z" transform="translate(-397.406 -265.138)" fill="#fbc8b1" fill-rule="evenodd"/><path d="M495.092,350.719c-.006.008-.064.227-.21-.107-2.713,3.481-10.281,9.078-12.843,11.294-5.37,4.647-11.456,6.956-12.882,11.241-.967,2.9-.818,9.992,4.157,13.683-2.135,22.085.283,29.033,2.486,42.011.8,4.687,1.05,9.472,1.748,15.159l33.75-9.913c-16.332-25.553,3.565-34.717,6.335-51.227-10.6-7.036-5.625-22.813-5.635-26.878a7.873,7.873,0,0,1-2.236-.622c-6.01,10.745-19.144,20.756-23.36,28.553C483.341,377.79,493.342,355.828,495.092,350.719Z" transform="translate(-391.963 -270.017)" fill="#f80" fill-rule="evenodd"/><path d="M470.457,385.4a10.535,10.535,0,0,0,2.958,3.421c-2.135,22.085.283,29.032,2.486,42.011q.177,1.047.322,2.1c8-16.922,15.9-20.661,30.221-38.681-8.6,3.025-14.094,1.328-22.394-1.914A63.809,63.809,0,0,1,470.457,385.4Z" transform="translate(-392.064 -272.002)" fill="#f80" fill-rule="evenodd"/><path d="M489.236,441.106l22.906-6.731c-16.332-25.553,3.565-34.717,6.335-51.227-10.6-7.036-5.625-22.813-5.635-26.878a7.868,7.868,0,0,1-2.236-.622c-6.01,10.745-19.144,20.756-23.36,28.553C482.356,391.967,481.408,425.864,489.236,441.106Z" transform="translate(-392.806 -270.304)" fill="#f80" fill-rule="evenodd"/><path d="M485.009,392.846c-1.51,7.193-2.014,18.143-1.055,28.587,6.052-8.305,13-13.889,23.233-26.758C498.657,397.671,493.187,396.035,485.009,392.846Z" transform="translate(-392.806 -272.427)" fill="#f80" fill-rule="evenodd"/><g transform="translate(93.354 36.51)"><path d="M497.051,344.015a22.038,22.038,0,0,1-4.4-5.446,18.875,18.875,0,0,1-2.313-5.35c-1.348.257-1.884-.846-2.207-2.391-.474-2.264-1.353-4.532-1.726-6.516-.452-2.435,1.14-3.777,2.454-1.765a25.742,25.742,0,0,1,.322-6.112c1.375-7.251,6.243-12.713,13.979-12.574,8.567.153,12.7,3.615,13.839,11.83a35.007,35.007,0,0,1,.35,6.745c1.236-1.145,2.428.193,1.959,2.357-.429,1.974-1.377,4.212-1.916,6.461-.356,1.489-.9,2.557-2.152,2.351a19.281,19.281,0,0,1-3,6.145,23.039,23.039,0,0,1-3.8,4.274c-2.78,2.346-4.281,3.38-5.813,3.356C501.056,347.359,499.462,346.223,497.051,344.015Z" transform="translate(-486.324 -303.858)" fill="#fac1a4" fill-rule="evenodd"/></g><path d="M516.6,327.4c-.344-7.228-2.009-11.856-5.9-17.914-1.848,18.143-19.85,8.159-20.033,18.745-3.223-8.868-2.309-10.827-1.286-20.712l5.215-5.215,10.888-2.192,9.9,2.267,2.417,6.578C518.334,318.66,519.056,317.7,516.6,327.4Z" transform="translate(-393.09 -267.134)" fill="#745a45" fill-rule="evenodd"/><path d="M468.927,530.752c-10.525-.023-17.536-1.748-21.452-3.893-13.05-9.355,19.838-15.915,23.014-16.375,29.4-4.043,47.82,11.132,68.609,13.664,3.906.364,6.938-2.292,10.212-1.412,6.2,1.662,2.157,5.549,2.079,11.874s5.011,9.143,5.545,13.588c.469,3.91,1.295,10.969-.757,10.946-6.043-7.313-8.639-17.92-21.539-23.283C518.841,529.3,480.49,530.78,468.927,530.752Z" transform="translate(-390.578 -279.103)" fill="#fac1a4" fill-rule="evenodd"/><path d="M548.753,524.354c2.9-2.587,6.494-3.166,9.569.124,2.153,2.3-.341,5.638-.405,10.856-.078,6.4,5.074,9.261,5.615,13.767.477,3.958,1.021,11.513-1.055,11.487l-5.108-7.723c-.7-3.337-2.3-11.616-4.565-17.162C551.29,531.994,550.119,528.515,548.753,524.354Z" transform="translate(-396.533 -279.811)" fill="#2f110f" fill-rule="evenodd"/><path d="M468.9,530.746c-10.564-.023-17.672-1.7-21.627-3.909-2.012-1.118-2.681-3.4-3.106-4.634-1.647-4.817,7.771-9.033,26.294-11.725,29.4-4.043,47.911,8.886,68.171,12.384l-.689,15.64C522.151,531.937,480.465,530.775,468.9,530.746Z" transform="translate(-390.553 -279.098)" fill="#2f2e41" fill-rule="evenodd"/><path d="M468.932,531.527c-10.564-.023-17.672-1.7-21.627-3.909a6.615,6.615,0,0,1-2.793-3.73,37.55,37.55,0,0,0,14.344-.51c31.167,1.747,52.461,4.412,79.321,11.34l-.2,4.566C522.181,532.718,480.495,531.555,468.932,531.527Z" transform="translate(-390.583 -279.878)" fill="#2f2e41" fill-rule="evenodd"/></g></g></g></svg>