<svg id="Layer_1" data-name="Layer 1" xmlns="http://www.w3.org/2000/svg" xmlns:xlink="http://www.w3.org/1999/xlink" viewBox="0 0 553 514.43"><defs><style>.cls-1{fill:url(#linear-gradient);}.cls-2{fill:#be6f72;}.cls-3{fill:#3f3d56;}.cls-4{fill:#65617d;}.cls-5,.cls-7{opacity:0.1;}.cls-18,.cls-5{isolation:isolate;}.cls-6{fill:#e3e8f4;}.cls-8{fill:#f2f2f2;}.cls-9{fill:#e6e8ec;}.cls-10{fill:#fff;}.cls-11{fill:#f80;}.cls-12{fill:#011a43;}.cls-13{fill:url(#linear-gradient-2);}.cls-14{fill:#feb9b9;}.cls-15{fill:#2f2e41;}.cls-16{fill:#d30001;}.cls-17{fill:url(#linear-gradient-3);}.cls-18{opacity:0.15;}</style><linearGradient id="linear-gradient" x1="8.03" y1="513.86" x2="8.03" y2="514.86" gradientTransform="matrix(220.72, 0, 0, -344.86, -1326.74, 177557.51)" gradientUnits="userSpaceOnUse"><stop offset="0" stop-color="gray" stop-opacity="0.25"/><stop offset="0.54" stop-color="gray" stop-opacity="0.12"/><stop offset="1" stop-color="gray" stop-opacity="0.1"/></linearGradient><linearGradient id="linear-gradient-2" x1="170.59" y1="237.49" x2="170.59" y2="238.49" gradientTransform="matrix(0.72, 0, 0, -0.17, -13.14, 465.33)" xlink:href="#linear-gradient"/><linearGradient id="linear-gradient-3" x1="8.17" y1="514.87" x2="8.17" y2="513.87" gradientTransform="matrix(176, 0, 0, -372, -1161.59, 191653.3)" gradientUnits="userSpaceOnUse"><stop offset="0" stop-color="#f80"/><stop offset="1" stop-color="#d30001"/></linearGradient></defs><g id="Group_17279" data-name="Group 17279"><path id="Path_2309" data-name="Path 2309" class="cls-1" d="M554,187.67a9.52,9.52,0,0,0-4.19-1.83c-1.6-.37-3.24-.6-4.86-.86l-21.1-3a25.06,25.06,0,0,0-6.47-.35,8.21,8.21,0,0,0-5.62,2.92,4.39,4.39,0,0,0-1,2.74,7.35,7.35,0,0,0,1,2.85,8.81,8.81,0,0,1,.53,1.26,28.83,28.83,0,0,0,.75,2.87,3,3,0,0,0,.36.56.38.38,0,0,1,0,.15c-.23,1.18.52,2.42.18,3.56-.29,1-1.24,1.57-1.84,2.38a3.59,3.59,0,0,0-.09,4c.64,1,1.81,1.67,2.14,2.81.44,1.5-.74,3-1.8,4.11a64.65,64.65,0,0,0-5.36,6.76,4.16,4.16,0,0,0-.86,2c-.09,1.49,1.34,2.8,1.09,4.29-.2,1.16-1.34,1.87-2.32,2.57-3.64,2.4-6.57,6.26-6.86,10.62a37.14,37.14,0,0,0-8.3-18.86c-1.22-1.47-2.57-3-3.08-4.82a21.26,21.26,0,0,0-.48-2.27c-.85-2.27-3.58-3.24-4.77-5.34-.86-1.47-.86-3.36-1.92-4.66s-2.73-1.58-3.65-2.84a17.81,17.81,0,0,1-1.17-2.64,5.79,5.79,0,0,0-1.58-1.9l-.4-.28a1.35,1.35,0,0,0,.46-1c0-1-1-1.66-1.86-2.16-1.12-.63-2.2-1.32-3.27-2a7.55,7.55,0,0,0,2.92-2.39,7.81,7.81,0,0,0,1.12-5.14,6.5,6.5,0,0,0-1.54-3.94c-.54-.57-1.21-1-1.78-1.52-1.46-1.43-2-3.55-2.57-5.5-.81-2.57-2.07-5.27-4.41-6.64-1.13-.66-2.45-1-3.56-1.66s-2-2-1.65-3.27c.26-.85,1.06-1.44,1.6-2.17a4.34,4.34,0,0,0-1.09-6c-.64-.4-1.42-.76-1.54-1.49a2.73,2.73,0,0,1-2-2.11,7.83,7.83,0,0,1,0-3.05c.22-1.6.44-3.18.66-4.77a3.07,3.07,0,0,0,2.38,0,20.48,20.48,0,0,0,2.57,3.36,33.37,33.37,0,0,1,6,10.42c.49,1.37,1,2.9,2.26,3.63.43.25.93.38,1.36.64a5.29,5.29,0,0,1,1.34,1.37c1,1.37,2.05,2.72,3.07,4.08l.05.21a1.28,1.28,0,0,0,.14.34,1.11,1.11,0,0,0,.74.38c3.15.73,6.69,1.4,9.43-.33,2.46-1.54,3.54-4.59,5.64-6.63,1.48-1.45,3.58-2.57,4-4.61a15.38,15.38,0,0,1-1.48-.54c.43-.43.86-.93,1.44-1.49a18,18,0,0,0,2.28-2.72,17.21,17.21,0,0,0,1.72-3.84q2.48-7.06,5-14.13c.79-2.23,1.57-4.48,2.57-6.64,1-2.35,2.24-4.6,3.37-6.91a92,92,0,0,0,6.66-18.77,6.7,6.7,0,0,0,.27-2.74,7.22,7.22,0,0,0-2.43-3.7,18.22,18.22,0,0,0-3.65-3,6,6,0,0,0-4.58-.74c-2.2.65-3.58,2.89-4.08,5.14s-.32,4.58-.53,6.86c-.31,3.3-1.44,6.49-1.72,9.8-.14,1.91,0,3.85-.23,5.76a21,21,0,0,1-2.57,7.1,45.9,45.9,0,0,1-11.08,13.66c-.52.44-1.06.86-1.58,1.33a8.18,8.18,0,0,1,.11-1.11,6.41,6.41,0,0,0-1.09.38,3.25,3.25,0,0,0-.12-1.28c-.69-2.05-3.74-2.57-4.29-4.66a9,9,0,0,1-.14-1.56c-.18-1.82-1.43-3.37-1.86-5.14s-.09-3.43-.85-5a14.28,14.28,0,0,0-2.28-2.57,10.08,10.08,0,0,1-2.17-4.08c-.11-.42-.22-.86-.34-1.28a5.76,5.76,0,0,0-.3-2.82c-.78-1.94-2.8-3.18-3.53-5.14-.56-1.53-.31-3.43-1.38-4.62a5.06,5.06,0,0,0-2-1.22,45.07,45.07,0,0,0-12.23-2.89c-2.35-.21-4.93-.33-6.61-2-2-1.92-2.06-5.37-4.36-6.86-2-1.31-4.88-.34-6.45,1.5a8.82,8.82,0,0,0-.65.86,9,9,0,0,1-.18-3.51c0-.29.06-.59.08-.86a17.1,17.1,0,0,0,9.29-7.34v0l.1.27c.25.63.65,1.23,1.23,1.29h0a1.7,1.7,0,0,0,1.06-.38,8.43,8.43,0,0,0,1.43-1.24c.21-.24.42-.48.61-.74a9.62,9.62,0,0,0,1-1.72,10.21,10.21,0,0,0,.85-2.87c.16-1,.17-2,.35-3a18.31,18.31,0,0,1,.62-2.28c.09-.24.17-.5.25-.74s.19-.58.27-.86a19.61,19.61,0,0,0,.86-5.43v-.93a9,9,0,0,0-2.88-6.38c-1.47-1.21-3.43-1.72-4.51-3.35a16.49,16.49,0,0,1-1.27-3.8A8.56,8.56,0,0,0,434,37.5,7.47,7.47,0,0,0,428.7,39h0l-.12.1h0a8.58,8.58,0,0,0-2.13,2.36,7.11,7.11,0,0,1-3-1.71c-.85-.8-1.51-1.8-2.38-2.57a6.14,6.14,0,0,0-6.1-1.29,7.3,7.3,0,0,0-4.36,5c-.47,1.77-.39,3.8-1.37,5.27-.77,1.15-2,1.72-2.89,2.76a5.27,5.27,0,0,0-1.08,2.29h0a6.88,6.88,0,0,0-.15,1.43h0a2.64,2.64,0,0,0,0,.63v.1a5.44,5.44,0,0,0,.15.7h0a5.94,5.94,0,0,0,1.28,2.35,5.77,5.77,0,0,0,2.06,1.49,8.88,8.88,0,0,0,1,.31l1,.24.36.08a17.07,17.07,0,0,0-.48,15.09q0,.38-.09.72a58.73,58.73,0,0,0,.45,10.1c.12,1.33.19,2.8-.63,3.85A7.24,7.24,0,0,1,409,89.37c.46-.6.93-1.19,1.41-1.78-1.2-1.22-3.12-1.38-4.83-1.26a22.55,22.55,0,0,0-9.43,2.88c-1.92,1.11-3.89,2.58-6.08,2.32-1.3-.15-2.57-.86-3.83-.52a8,8,0,0,0-2,1.17,2.65,2.65,0,0,1-1.61.5c-1.34-1.65-3.43-2.78-5-4.12a39.87,39.87,0,0,1-5-5.38c-2.78-3.35-5.55-6.71-8.27-10.1-2.3-2.84-4.66-5.92-5.06-9.56a10,10,0,0,1-.06-1.09,27.81,27.81,0,0,1,.65-5.14,2.64,2.64,0,0,0,0-1.25c-.26-.85-1.24-1.17-2.09-1.36h0a19.71,19.71,0,0,0,.23-2c.48-7.37,0-14.86,1.52-22.08a15.07,15.07,0,0,1,3.55-7.6c3.13-3.16,8.37-3.92,10.77-7.67,2-3.12,1.21-7.53-1.31-10.28s-6.4-3.88-10.1-3.74a5.17,5.17,0,0,0-2.94.79,6.18,6.18,0,0,0-1.78,2.71l-3.68,8.93A52.68,52.68,0,0,0,351.38,21c-1,3.75-1.26,7.71-2.08,11.5,0,2.91-1.87,6.54-2.9,9.23-1.15,3-2.39,6-3.43,9.07-.26.78-1.16,3.06-1.71,5.15a3.56,3.56,0,0,0-.59.43,16.77,16.77,0,0,0-1.21,1.81c-.78,1-2,1.58-2.91,2.57s-1,2.82.15,3.32a3.35,3.35,0,0,0,.75.16,3.4,3.4,0,0,1,.46.08c1.29.36,1.79,2,1.6,3.32s-.85,2.57-1,3.9c-.23,2.37,1.16,4.57,2.5,6.56a55.16,55.16,0,0,0,4.57,6.16c1.21,1.36,2.58,2.57,3.79,3.88,4.64,4.76,8.32,10.33,12.49,15.51a34.62,34.62,0,0,0,5.08,5.33,38.67,38.67,0,0,0,3.85,2.65l7.17,4.54a7.81,7.81,0,0,0,2.7,1.28,3.85,3.85,0,0,0,1,0c.05.21.08.42.13.63.56,2.25,1.79,4.29,1.92,6.58s-.07,4.62.1,6.94c.15,2.13.62,4.28.74,6.38.24,4-.75,8-1.71,12-1.45,5.8-2.32,11.71-5.14,17-.79,1.45-1.72,2.93-1.72,4.58a2.43,2.43,0,0,0,0,.6h0l-1.28.73c-.38.21-.76.43-1.1.65-1.63,1.06-3.37,2.24-4,4.07-.54,1.49-.29,3.18-.94,4.62,0,.07-.07.13-.1.19-.69,1.34-2.05,2.33-2.36,3.8h0c-.23,1.12.21,2.32,0,3.43v0a12.44,12.44,0,0,0-.46,1.72,2.09,2.09,0,0,0,.05.56,3.22,3.22,0,0,0,1,1.67,6.38,6.38,0,0,0,1,.8A11.58,11.58,0,0,0,369,195l.22.12c.33.17.65.34,1,.49l.22.09c.39.18.78.33,1.17.47l.28.08c.31.1.62.2.94.28l.22.07.2,0,.85.18.32.06c.38.06.76.11,1.16.15h.34c.29,0,.57,0,.86,0h1.56a9.71,9.71,0,0,0,1.21-.11h.13c.36-.05.72-.11,1.08-.19l.28-.06c.33-.07.67-.15,1-.25l.18-.06c.4-.12.8-.24,1.2-.4a31.66,31.66,0,0,0,4-2c.85-.47,1.71-.95,2.57-1.39a18.83,18.83,0,0,1,1.95-.85A10.93,10.93,0,0,1,397,191a20.17,20.17,0,0,1,2.57.52v.28q1.05,6.18,2.07,12.35a24.6,24.6,0,0,1,3.55-2.14,7.55,7.55,0,0,0-.46,1.93,7.82,7.82,0,0,0,0,1.53,3.33,3.33,0,0,1-.24,2.36c-.3.4-.86.62-1,1.06a3.49,3.49,0,0,0-.08,1.4,2.23,2.23,0,0,1-2,2.08,3.25,3.25,0,0,1-1.3,3.82,4.34,4.34,0,0,0-1,.65,3.07,3.07,0,0,0-.58,1.3,22.9,22.9,0,0,1-6.71,11,21.12,21.12,0,0,0-3.31,3.24,14.12,14.12,0,0,0-1.5,3q-3.44,8.38-7,16.78a37.27,37.27,0,0,0-3,9.67c-1,9.24-9.25,17.08-7.71,26.25a12.9,12.9,0,0,0,2.67,6.26c1.72,2.07,4.29,3.25,6.86,4.21,6.61,2.57,13.58,4,20.52,5.39l10.9,2.24a49.12,49.12,0,0,0,6.5,1c2.63.18,5.33-.07,7.89.6,1.59.41,3.1,1.17,4.74,1.26,1.41.07,3.14-.23,4,.92s.19,2.67,1,3.69c1.27,1.62,4.36,0,5.74,1.52a7.07,7.07,0,0,1,.86,1.9,3.57,3.57,0,0,0,.85,1.08,6.49,6.49,0,0,1,.1,1.46,24.88,24.88,0,0,1-1.23,5.85q-1.54,5.22-3.08,10.45a23.1,23.1,0,0,0-.85,3.77,8.35,8.35,0,0,0,0,1.87,5.12,5.12,0,0,0,3.07,4.46,5.65,5.65,0,0,0,4.17-.51,18.8,18.8,0,0,0,3.43-2.32,23.39,23.39,0,0,0,4.94-5.09c4.29-6.41,2.9-15.08,5.91-22.17,2-4.73,5.88-8.57,7.18-13.56a5.4,5.4,0,0,0,.1-2.93c-.54-1.71-2.37-2.69-4.07-3.31h-.08a33.65,33.65,0,0,0-4.28-1.22c-.36-.08-.73-.14-1.1-.2a6.75,6.75,0,0,1-1.9-2.47,5.58,5.58,0,0,0-.4-1.49,1.51,1.51,0,0,0-1.23-.68c-.86-.09-2,.22-2.94.15-1.91-.13-3.18-2-4.9-2.88s-3.57-.65-5.4-.52a4.94,4.94,0,0,1-1.95-.12,7.47,7.47,0,0,1-2.06-1.41,8.6,8.6,0,0,0-7.55-1.52,8.13,8.13,0,0,1-2.57.58c-1.67-.09-2.85-1.58-4.09-2.72-3.37-3.09-8.18-3.9-12.28-5.93a2.82,2.82,0,0,1-1.47-1.27c-.47-1.17.59-2.33,1.55-3.13l7-5.86c7.72-6.41,17.36-11.23,20.94-20.63a11.79,11.79,0,0,1,1.71-3.53,4.87,4.87,0,0,1,1-.85,7.18,7.18,0,0,1,5.27-1,17.64,17.64,0,0,1,6.2,2.71q4.61,2.78,9,6A78.52,78.52,0,0,1,468,254.8c4.5,4.28,8.25,9.36,12.44,14s9,8.93,14.8,11.15,12.86,2.11,17.85-1.6c5.77-4.28,7.62-11.95,9.08-19,3.21-3.1,4.18-7.83,5.75-12,1-2.65,2.25-5.15,3.31-7.79,1.27-3.1,2.26-6.3,3.26-9.5a46.22,46.22,0,0,0,2.28-9.92c.41-5.34-1-11,.48-16,2-.44,3.78-1.55,5.72-2.2,2.9-.95,6-.8,9.07-.78h.2a4.72,4.72,0,0,0,3-.71c1-.86,1.19-2.33,1.24-3.66C556.69,193.48,556.48,189.8,554,187.67ZM429.83,41.47a6.28,6.28,0,0,1-2.16.16Z" transform="translate(-3.59 -1.32)"/><path id="Path_2310" data-name="Path 2310" class="cls-2" d="M433.21,95.69a9.28,9.28,0,0,1-3.56,1.89l-6.08,2.18c-3.3,1.18-6.74,2.37-10.22,1.95-2-.24-10.29-1.47-11.55-3-1.92-2.34,4.81-5.8,7.1-7.78a9.63,9.63,0,0,0,1.44-1.27c.86-1,.75-2.51.63-3.83a58.66,58.66,0,0,1-.45-10.09,21.48,21.48,0,0,1,.34-2.39c.86-3.94,4.53-2.5,7.43-1.45a58.25,58.25,0,0,1,10.07,4.36,7.19,7.19,0,0,1,2.48,2.11c1.27,1.92.76,4.44.56,6.85-.18,1.88-.17,3.68,1,5A13.86,13.86,0,0,1,434,92,3.21,3.21,0,0,1,433.21,95.69Z" transform="translate(-3.59 -1.32)"/><path id="Path_2311" data-name="Path 2311" class="cls-2" d="M349.27,33.92c.86-3.8,1.05-7.71,2.08-11.48A52.67,52.67,0,0,1,354,15.29l3.78-8.82a6.15,6.15,0,0,1,1.78-2.7A5.25,5.25,0,0,1,362.54,3a13.12,13.12,0,0,1,10.1,3.73c2.52,2.71,3.32,7.11,1.31,10.22-2.4,3.75-7.63,4.5-10.76,7.66a14.93,14.93,0,0,0-3.56,7.58c-1.56,7.2-1,14.67-1.52,22-.15,2.29-.6,4.9-2.57,6.08a7.4,7.4,0,0,1-3.84.75l-5.62.09c-.94,0-4.36.6-5-.12-1.1-1.24,1.41-7.43,1.86-8.81,1-3.06,2.25-6,3.43-9C347.39,40.45,349.27,36.82,349.27,33.92Z" transform="translate(-3.59 -1.32)"/><path id="Path_2312" data-name="Path 2312" class="cls-3" d="M465.36,303.18c-1.29,4.95-5.18,8.81-7.18,13.53-3,7.07-1.65,15.72-5.9,22.12a23.48,23.48,0,0,1-4.95,5.1,18.52,18.52,0,0,1-3.43,2.3,5.64,5.64,0,0,1-4.16.52,5.13,5.13,0,0,1-3.08-4.46,9.63,9.63,0,0,1,0-1.86,22.78,22.78,0,0,1,.86-3.76q1.55-5.21,3.07-10.43a25.16,25.16,0,0,0,1.24-5.82c.11-2.16-1.26-5-.68-7,.27-.91,1.26-1.71,1.72-2.48a14.19,14.19,0,0,0,1.47-3.5c.7-2.39,1.18-4.95,2.66-7a16,16,0,0,1,3.34-3.13,8.91,8.91,0,0,1,3.19-1.79,7.8,7.8,0,0,1,3.43.16,33.65,33.65,0,0,1,4.28,1.22h.08c1.71.62,3.53,1.57,4.07,3.3A5.4,5.4,0,0,1,465.36,303.18Z" transform="translate(-3.59 -1.32)"/><path id="Path_2313" data-name="Path 2313" class="cls-3" d="M556.56,197.81c0,1.33-.22,2.81-1.25,3.64a4.63,4.63,0,0,1-3,.72h-.23c-3.06,0-6.17-.18-9.07.78-2.2.72-4.23,2.06-6.52,2.33-3.17.36-6.14-1.37-8.94-2.88a87.34,87.34,0,0,0-8.12-3.86c-1.82-.75-5.53-1.23-6.4-3.21a28.83,28.83,0,0,1-.75-2.87,9.89,9.89,0,0,0-.53-1.26,7.32,7.32,0,0,1-1-2.83,4.44,4.44,0,0,1,1-2.75,8.23,8.23,0,0,1,5.61-2.89,25.06,25.06,0,0,1,6.47.35l21.1,3a47.74,47.74,0,0,1,4.87.86A9.53,9.53,0,0,1,554,188.8C556.48,190.89,556.69,194.57,556.56,197.81Z" transform="translate(-3.59 -1.32)"/><path id="Path_2314" data-name="Path 2314" class="cls-4" d="M538,203.3c-2.57,5.42-.72,11.84-1.18,17.84a46,46,0,0,1-2.28,9.89c-1,3.19-2,6.39-3.26,9.48-1.06,2.57-2.32,5.14-3.31,7.77-1.57,4.18-2.57,8.88-5.75,12-1.46,7-3.31,14.67-9.08,18.92-5,3.7-12,3.83-17.85,1.59s-10.61-6.52-14.8-11.14-7.94-9.65-12.44-13.95a76.62,76.62,0,0,0-8.2-6.71q-4.35-3.17-8.95-6a18.12,18.12,0,0,0-6.21-2.7,7.2,7.2,0,0,0-5.27,1,4.84,4.84,0,0,0-.95.86,11.68,11.68,0,0,0-1.71,3.51c-3.6,9.38-13.26,14.19-21,20.59l-7,5.83c-1,.8-2,2-1.55,3.12a2.74,2.74,0,0,0,1.47,1.27c4.1,2,8.91,2.84,12.28,5.93,1.24,1.13,2.42,2.62,4.09,2.7a8.12,8.12,0,0,0,2.57-.57,8.63,8.63,0,0,1,7.55,1.51,7.47,7.47,0,0,0,2.06,1.41,4.94,4.94,0,0,0,1.95.12c1.83-.13,3.77-.29,5.4.52s3,2.74,4.9,2.88c.93.06,2-.24,2.94-.16a1.52,1.52,0,0,1,1.23.69,5.34,5.34,0,0,1,.4,1.47c.35,1.21,1.54,1.95,2.31,2.94a8.11,8.11,0,0,1,1.23,5.53,23.57,23.57,0,0,1-7.5,15.79,9.36,9.36,0,0,1-4.62,2.57,4.3,4.3,0,0,1-4.58-2A6.88,6.88,0,0,0,440,316c-1.38-1.52-4.47.09-5.74-1.53-.79-1-.22-2.63-1-3.67s-2.57-.86-4-.92c-1.64-.09-3.16-.86-4.74-1.26-2.58-.67-5.27-.42-7.9-.6a47.53,47.53,0,0,1-6.5-1l-10.9-2.23c-6.94-1.41-13.91-2.84-20.52-5.37a16.5,16.5,0,0,1-6.85-4.2,12.91,12.91,0,0,1-2.68-6.26c-1.55-9.14,6.68-17,7.72-26.17.37-3.36,1.71-6.53,3-9.65l7-16.74a14.37,14.37,0,0,1,1.46-3,21.52,21.52,0,0,1,3.31-3.23,22.72,22.72,0,0,0,6.71-11,3,3,0,0,1,.58-1.29,4.7,4.7,0,0,1,1-.65,3.25,3.25,0,0,0,1.3-3.81,2.23,2.23,0,0,0,2-2.07,3.42,3.42,0,0,1,.08-1.39c.21-.45.72-.67,1-1.06a3.3,3.3,0,0,0,.24-2.35,7.78,7.78,0,0,1,2.3-6.33c2.05-2,5-1.49,7.79-2a44.81,44.81,0,0,0,8.23-2.63,80.79,80.79,0,0,1,23.24-5.37,50.77,50.77,0,0,1,23.46,3.73,13.54,13.54,0,0,1,3,1.72,5.8,5.8,0,0,1,1.59,1.89,16.67,16.67,0,0,0,1.16,2.63c.92,1.25,2.65,1.66,3.65,2.84s1.09,3.18,1.92,4.65c1.19,2.09,3.95,3.06,4.78,5.33.25.72.29,1.51.48,2.25.46,1.87,1.85,3.34,3.07,4.82a36.91,36.91,0,0,1,8.3,18.85c.28-4.34,3.2-8.19,6.86-10.59,1-.64,2.12-1.35,2.32-2.52.25-1.47-1.18-2.78-1.09-4.28a4.21,4.21,0,0,1,.86-2,63.34,63.34,0,0,1,5.37-6.75c1.05-1.15,2.23-2.57,1.8-4.1-.34-1.14-1.5-1.8-2.15-2.8a3.57,3.57,0,0,1,.09-3.94c.6-.81,1.55-1.4,1.84-2.37.34-1.14-.41-2.38-.18-3.55a4.38,4.38,0,0,1,1.77-2.29A14.86,14.86,0,0,1,519,191.2c2.26-.86,4.78-.54,7.18-.2,4,.55,8.51,1.41,10.77,4.77C538.35,197.86,539.09,201.05,538,203.3Z" transform="translate(-3.59 -1.32)"/><path id="Path_2315" data-name="Path 2315" class="cls-5" d="M556.55,197.81c0,1.33-.21,2.81-1.24,3.64a4.57,4.57,0,0,1-3,.71h-.24c.36-1.78,2.52-2.8,2.9-4.61a4.08,4.08,0,0,0-.94-3.11c-1.83-2.47-4.78-3.85-7.71-4.85a51.17,51.17,0,0,0-25.77-1.93,25.93,25.93,0,0,0-6.77,2.09,22.47,22.47,0,0,0-2.06,1.45,7.26,7.26,0,0,1-1-2.83,4.44,4.44,0,0,1,1-2.75,8.18,8.18,0,0,1,5.62-2.88,24.55,24.55,0,0,1,6.46.34l21.1,3c1.63.21,3.26.49,4.87.86A9.53,9.53,0,0,1,554,188.8C556.48,190.89,556.69,194.57,556.55,197.81Z" transform="translate(-3.59 -1.32)"/><path id="Path_2316" data-name="Path 2316" class="cls-5" d="M465.36,303.18c-1.29,4.95-5.18,8.81-7.18,13.53-3,7.07-1.65,15.72-5.9,22.12a23.48,23.48,0,0,1-4.95,5.1,18.52,18.52,0,0,1-3.43,2.3,5.64,5.64,0,0,1-4.16.52,5.13,5.13,0,0,1-3.08-4.46,9.63,9.63,0,0,1,0-1.86l0,.14c.75,1.8,2,3.68,3.89,4a5.31,5.31,0,0,0,4-1.4c2.82-2.28,4.47-5.66,6-8.93a36.81,36.81,0,0,0,2.9-7.4c.34-1.45.5-2.95.85-4.4,1.63-7.08,7.18-12.86,8.4-20a4.73,4.73,0,0,0,.07-1.5,7.89,7.89,0,0,0-.73-1.87,8.89,8.89,0,0,1-.65-2.07c1.71.61,3.53,1.56,4.07,3.3a5.4,5.4,0,0,1-.14,2.9Z" transform="translate(-3.59 -1.32)"/><path id="Path_2317" data-name="Path 2317" class="cls-5" d="M452.42,290.89a12.45,12.45,0,0,1-3.86,5.28,18.91,18.91,0,0,1-8.33,3.6,8.28,8.28,0,0,1-4.28,0c-1.9-.66-3.28-2.44-5.22-3-1.39-.38-2.88,0-4.29-.25-2.53-.35-4.49-2.28-6.53-3.82-6.25-4.7-14.45-6.21-20.7-10.91a1.93,1.93,0,0,1-.67-.69,2,2,0,0,1-.12-1,19.73,19.73,0,0,1,1.87-8.24,29.35,29.35,0,0,1,3.53-5c5.6-6.86,11.22-13.76,17.93-19.55a27.2,27.2,0,0,1,9.42-5.78c2-.61,5.87-1.19,8.27-.16a4.62,4.62,0,0,0-1,.86,11.79,11.79,0,0,0-1.71,3.51c-3.61,9.39-13.27,14.2-21,20.6l-7.05,5.84c-1,.8-2,2-1.55,3.12a2.84,2.84,0,0,0,1.48,1.27c4.1,2,8.9,2.84,12.28,5.92,1.23,1.13,2.42,2.62,4.09,2.71a8.4,8.4,0,0,0,2.57-.57,8.66,8.66,0,0,1,7.55,1.5,7.29,7.29,0,0,0,2.06,1.42,4.93,4.93,0,0,0,1.95.12c1.83-.13,3.76-.29,5.4.52s3,2.73,4.89,2.87C450.42,291.11,451.53,290.79,452.42,290.89Z" transform="translate(-3.59 -1.32)"/><path id="Path_2318" data-name="Path 2318" class="cls-3" d="M373.59,174.57c-1.62,1-3.35,2.22-4,4-.55,1.48-.29,3.18-.95,4.62s-2.15,2.44-2.47,4c-.23,1.12.22,2.3,0,3.42a13.86,13.86,0,0,0-.47,1.79c-.09,1.27,1,2.31,2.08,3a17.39,17.39,0,0,0,15.57,1.72,72.07,72.07,0,0,0,6.55-3.35,12.91,12.91,0,0,1,7.05-1.72c1.42.16,2.77.67,4.19.86a4.37,4.37,0,0,0,3.91-1.17,4.83,4.83,0,0,0,.86-2c1.19-4.7.65-9.69-.48-14.42s-2.84-9.29-4.05-14A64.11,64.11,0,0,0,398.41,151c-1.43-3.3-3.84-6.37-7.21-7.63a1.34,1.34,0,0,0-.86-.11,1.47,1.47,0,0,0-.55.41,26.15,26.15,0,0,0-5.88,9.89c-1.35,4.1-1.72,8.46-3,12.58-.53,1.72-1.22,4-2.57,5.32S375.13,173.58,373.59,174.57Z" transform="translate(-3.59 -1.32)"/><path id="Path_2319" data-name="Path 2319" class="cls-5" d="M405.92,189.74a5.23,5.23,0,0,1-.9,2,4.36,4.36,0,0,1-3.92,1.15c-1.41-.17-2.76-.69-4.17-.85a12.92,12.92,0,0,0-7.06,1.71c-2.19,1.1-4.28,2.46-6.56,3.34a17.27,17.27,0,0,1-10.4.6,16.89,16.89,0,0,1-5.14-2.27c-1.08-.7-2.17-1.71-2.08-3a15.54,15.54,0,0,1,.47-1.78c.22-1.12-.22-2.3,0-3.42.33-1.55,1.82-2.58,2.47-4s.4-3.13.94-4.61c.67-1.83,2.41-3,4-4.05s3.56-1.86,4.87-3.14a4.53,4.53,0,0,0,.45-.63,15.42,15.42,0,0,0,2-4.73c1.26-4.13,1.6-8.47,2.94-12.59a26.35,26.35,0,0,1,5.89-9.88,1.33,1.33,0,0,1,.55-.41,1.34,1.34,0,0,1,.86.1c3.36,1.27,5.76,4.34,7.2,7.64s2,6.85,2.95,10.35c1.2,4.71,2.92,9.27,4.06,14S407.11,185,405.92,189.74Z" transform="translate(-3.59 -1.32)"/><path id="Path_2320" data-name="Path 2320" class="cls-5" d="M431.41,85.21a17.15,17.15,0,0,1-20.88-9.43,19.36,19.36,0,0,1,.34-2.39c.86-3.94,4.53-2.5,7.42-1.46a57.59,57.59,0,0,1,10.07,4.36,7.35,7.35,0,0,1,2.49,2.11C432.12,80.3,431.61,82.82,431.41,85.21Z" transform="translate(-3.59 -1.32)"/><circle id="Ellipse_152" data-name="Ellipse 152" class="cls-2" cx="422.64" cy="66.7" r="17.14"/><path id="Path_2321" data-name="Path 2321" class="cls-5" d="M472.75,196.11c0,1.43-1.93,1.88-3.36,1.8-5.14-.3-10.18-1.71-15.27-1.28-6.43.58-12.35,4.14-18.8,4.46-2.48.13-5-.24-7.46.22-3.17.59-6,2.52-9.23,2.79-2.8.24-5.57-.81-8.38-.7a13.44,13.44,0,0,0-5.6,1.6,7.91,7.91,0,0,1,2.3-4.8c2.05-2,5-1.49,7.79-2A44.81,44.81,0,0,0,423,195.6a80.79,80.79,0,0,1,23.24-5.37,50.65,50.65,0,0,1,23.46,3.71,13.65,13.65,0,0,1,3,1.71,1.24,1.24,0,0,1,.06.47Z" transform="translate(-3.59 -1.32)"/><path id="Path_2322" data-name="Path 2322" class="cls-6" d="M418.3,99.31l-6.94-2.57-2.93-1.08a14.25,14.25,0,0,0-3.74-1c-3.36-.26-6.52,2-8.31,4.83s-2.47,6.26-3.05,9.58q-1.18,6.8-2,13.66a89.59,89.59,0,0,0-.9,12.46c.2,10.61,2.44,21.08,4.91,31.4a109.88,109.88,0,0,1,2.73,13.93c.21,1.94.3,3.88.51,5.83.22,2.18.58,4.34.94,6.51l2.07,12.32c2.57-1.83,5.49-3.43,8.65-3.53,2.8-.1,5.58,1,8.38.7,3.21-.26,6.06-2.19,9.23-2.78,2.45-.45,5-.09,7.47-.21,6.45-.33,12.37-3.9,18.8-4.47,5.1-.46,10.17,1,15.28,1.28,1.42.08,3.35-.37,3.35-1.8,0-1-1-1.66-1.86-2.15a92.14,92.14,0,0,1-11.62-8.29c-3.37-2.68-6.8-5.42-9.12-9-5.6-8.7-3.68-20.46-8.45-29.64-3.89-7.46,0-17.23,0-25.64a39.07,39.07,0,0,0-3.29-19.19L435.08,92a1.34,1.34,0,0,0-.4-.64,1.22,1.22,0,0,0-.76-.23,8.06,8.06,0,0,0-5.54,1.77c-1.56,1.28-2.57,3.11-4.11,4.44S420.4,100.08,418.3,99.31Z" transform="translate(-3.59 -1.32)"/><path id="Path_2323" data-name="Path 2323" class="cls-3" d="M429.5,94.45c.55-2.35,1.14-4.79,2.71-6.63s4.43-2.8,6.45-1.49c2.3,1.49,2.4,4.94,4.36,6.86,1.71,1.64,4.28,1.77,6.62,2a44.85,44.85,0,0,1,12.23,2.88,5,5,0,0,1,2,1.21c1.07,1.22.85,3.09,1.39,4.6.72,2,2.74,3.2,3.52,5.15.85,2.16,0,4.57-.72,6.8-1.3,4-2.11,8.12-3.37,12.12a27.07,27.07,0,0,1-6,11c-1.3,1.33-3.24,2.57-5,1.77l-.66,4.76a7.78,7.78,0,0,0,0,3,2.71,2.71,0,0,0,2,2.11c.13.74.91,1.09,1.55,1.49a4.29,4.29,0,0,1,1.11,6l0,0c-.54.73-1.33,1.3-1.59,2.17-.39,1.25.53,2.57,1.65,3.25s2.42,1,3.55,1.67c2.35,1.35,3.61,4,4.42,6.61.6,1.95,1.1,4.07,2.57,5.49.56.54,1.24.95,1.78,1.52a6.47,6.47,0,0,1,1.54,3.93,7.8,7.8,0,0,1-1.12,5.14c-1.71,2.45-4.91,3.18-7.71,4.29-4.55,1.87-8.3,5.21-12.31,8.06a13.24,13.24,0,0,1-5.62,2.64c-2.77.36-5.51-.86-8.3-1a20.13,20.13,0,0,0-4.95.65l-5.15,1.11c.28-4-1.92-8-3.14-11.77a58.53,58.53,0,0,1-2.2-22.29,173.85,173.85,0,0,1,3.59-22.23c1-5.14.95-10.52,2.57-15.51,1.51-4.81,3.68-9.43,4.48-14.44C433.08,109.3,427.67,102.44,429.5,94.45Z" transform="translate(-3.59 -1.32)"/><path id="Path_2324" data-name="Path 2324" class="cls-3" d="M468.49,110.29a9.4,9.4,0,0,1,1,2.79,10.08,10.08,0,0,0,2.17,4.08,14,14,0,0,1,2.28,2.57c.79,1.49.49,3.31.85,4.94s1.68,3.31,1.86,5.14a9.14,9.14,0,0,0,.14,1.56c.56,2.07,3.61,2.57,4.29,4.64.45,1.35-.33,2.82-.18,4.23a3.77,3.77,0,0,1,.07,1.34,2.72,2.72,0,0,1-1,1.25,19.68,19.68,0,0,0-5.64,10,57.35,57.35,0,0,0-1.3,11.6L469.7,160a5.25,5.25,0,0,0-1.33-1.37c-.43-.26-.93-.38-1.37-.64-1.26-.72-1.76-2.25-2.25-3.62a33.65,33.65,0,0,0-6-10.39c-1.36-1.6-2.95-3.21-3.25-5.3a9.48,9.48,0,0,1,.16-2.86c.85-5.61,1.77-11.36,4.5-16.34,1.28-2.33,2.93-4.44,4.16-6.81C465.14,111.13,466.3,107.05,468.49,110.29Z" transform="translate(-3.59 -1.32)"/><path id="Path_2325" data-name="Path 2325" class="cls-3" d="M383.94,115.69a3.88,3.88,0,0,1-.53,2,2.7,2.7,0,0,1-2.71.86,8.11,8.11,0,0,1-2.71-1.27l-7.16-4.53a40.92,40.92,0,0,1-3.85-2.64,34.17,34.17,0,0,1-5.08-5.33c-4.17-5.14-7.85-10.72-12.49-15.42-1.26-1.29-2.57-2.52-3.79-3.87A57.38,57.38,0,0,1,341,79.39c-1.33-2-2.72-4.18-2.49-6.54.14-1.34.78-2.57,1-3.9s-.32-3-1.6-3.31a3.69,3.69,0,0,0-.46-.08,3.13,3.13,0,0,1-.75-.16c-1.19-.5-1-2.34-.15-3.31s2.12-1.5,2.9-2.57a15.5,15.5,0,0,1,1.22-1.81,4.67,4.67,0,0,1,2-1,31,31,0,0,1,15.21-.57c.86.19,1.84.53,2.09,1.36a2.37,2.37,0,0,1,0,1.24,27.81,27.81,0,0,0-.65,5.14,9.77,9.77,0,0,0,.06,1.08c.4,3.63,2.76,6.71,5.06,9.55,2.72,3.38,5.49,6.73,8.27,10.07a39.71,39.71,0,0,0,5,5.36c1.72,1.42,3.94,2.57,5.27,4.4,1.09,1.47.74,3.48.86,5.26a116.91,116.91,0,0,1,.09,16.1Z" transform="translate(-3.59 -1.32)"/><path id="Path_2326" data-name="Path 2326" class="cls-2" d="M492.79,151.45a18.31,18.31,0,0,0,2.28-2.7,17.51,17.51,0,0,0,1.71-3.83l5-14.1c.79-2.23,1.58-4.47,2.58-6.64,1-2.34,2.24-4.59,3.36-6.86a91.21,91.21,0,0,0,6.66-18.64,7,7,0,0,0,.27-2.73,7.25,7.25,0,0,0-2.43-3.7,18,18,0,0,0-3.66-3A6,6,0,0,0,504,88.5c-2.2.64-3.58,2.89-4.08,5.14s-.32,4.56-.53,6.86c-.31,3.29-1.44,6.47-1.72,9.77-.14,1.91,0,3.84-.23,5.74a20.91,20.91,0,0,1-2.57,7.09,46.22,46.22,0,0,1-11.08,13.63,18,18,0,0,0-3.33,3.2,10.58,10.58,0,0,0-1.6,4,9.18,9.18,0,0,0,.7,6.49c1.4,2.38,4.08,3.43,6.64,4C489.62,155.09,490.42,153.9,492.79,151.45Z" transform="translate(-3.59 -1.32)"/><path id="Path_2327" data-name="Path 2327" class="cls-3" d="M426.33,43.18A8,8,0,0,1,434.1,39,8.56,8.56,0,0,1,440.83,45a16,16,0,0,0,1.27,3.79c1.06,1.65,3,2.13,4.51,3.33a9,9,0,0,1,2.88,6.38,19.46,19.46,0,0,1-1.14,7.21,24,24,0,0,0-.86,3c-.17,1-.19,2-.34,3a9.74,9.74,0,0,1-3.93,6.49,1.73,1.73,0,0,1-1.07.39c-.66-.08-1.08-.86-1.33-1.56-1.36-3.94-1-8.75-3.54-11.88a13,13,0,0,0-4.07-3,5.26,5.26,0,0,0-2.07-.78,5.45,5.45,0,0,0-3,1.1,18.79,18.79,0,0,1-5.93,2.63,7.31,7.31,0,0,1-6.13-1.32c-1.18-1-2.05-2.45-3.36-3.21s-2.68-.72-4-1.24a5.9,5.9,0,0,1-3.11-7.73,6.35,6.35,0,0,1,.73-1.26c.86-1,2.13-1.61,2.89-2.75,1-1.47.9-3.5,1.37-5.26a7.25,7.25,0,0,1,4.36-5,6.11,6.11,0,0,1,6.1,1.28c.86.77,1.55,1.76,2.39,2.57a6.84,6.84,0,0,0,6.34,1.71" transform="translate(-3.59 -1.32)"/><path id="Path_2328" data-name="Path 2328" class="cls-5" d="M440.42,169.33a3.33,3.33,0,0,0-.91,3.63c.19.4,9-1.3,10-1.43,2.33-.33,6.42-.17,8-2.3,2.79-3.78-5.86-2.94-7.45-2.8C447,166.68,442.72,167.09,440.42,169.33Z" transform="translate(-3.59 -1.32)"/><path id="Path_2329" data-name="Path 2329" class="cls-3" d="M360,58.77a27,27,0,0,0-.65,5.14c-2.57.52-5.25-.33-7.72-1.19l-7.08-2.42a2,2,0,0,0-2.71.51,60.47,60.47,0,0,1-4.29,4.75,3.16,3.16,0,0,1-.74-.16c-1.19-.5-1-2.34-.16-3.31s2.13-1.5,2.91-2.57a16.77,16.77,0,0,1,1.21-1.81,4.78,4.78,0,0,1,2-1A31,31,0,0,1,358,56.14c.85.19,1.83.53,2.09,1.36A2.61,2.61,0,0,1,360,58.77Z" transform="translate(-3.59 -1.32)"/><path id="Path_2330" data-name="Path 2330" class="cls-5" d="M360,58.77a27,27,0,0,0-.65,5.14c-2.57.52-5.25-.33-7.72-1.19l-7.08-2.42a2,2,0,0,0-2.71.51,60.47,60.47,0,0,1-4.29,4.75,3.16,3.16,0,0,1-.74-.16c-1.19-.5-1-2.34-.16-3.31s2.13-1.5,2.91-2.57a16.77,16.77,0,0,1,1.21-1.81,4.78,4.78,0,0,1,2-1A31,31,0,0,1,358,56.14c.85.19,1.83.53,2.09,1.36A2.61,2.61,0,0,1,360,58.77Z" transform="translate(-3.59 -1.32)"/><path id="Path_2331" data-name="Path 2331" class="cls-5" d="M424.8,221.48c1.23.42,2.57,1,3,2.25l-9.93-2.52-5.14-1.31c-.91-.23-4.16-.5-4.76-1.21-.86-1.05,2.18-.33,2.73-.25,1.66.25,3.33.51,5,.81C418.79,219.8,421.79,220.72,424.8,221.48Z" transform="translate(-3.59 -1.32)"/><path id="Path_2332" data-name="Path 2332" class="cls-5" d="M428.64,230.27c-.85-.58-3.31-.51-4.37-.76-1.54-.36-3.06-.85-4.57-1.32-3.08-1-6.13-2.15-9.29-2.88-.59-.13-2.58-.17-2.48-.9s2-1,2.46-1c2.8-.21,6.3,1.1,8.9,2A39.18,39.18,0,0,1,428.64,230.27Z" transform="translate(-3.59 -1.32)"/><path id="Path_2333" data-name="Path 2333" class="cls-5" d="M422.36,213.65c-3.15-.86-6-2.81-9.24-3.19a3.75,3.75,0,0,1-2.36-.72,2.71,2.71,0,0,1-.76-1.37,16.11,16.11,0,0,1,6.66,1.67,22.22,22.22,0,0,1,3.12,1.66C420.49,212.14,421.57,213.4,422.36,213.65Z" transform="translate(-3.59 -1.32)"/><path id="Path_2334" data-name="Path 2334" class="cls-3" d="M482.32,136.91a15,15,0,0,0,10.5,16.56c-.42,2-2.52,3.16-4,4.6-2.09,2-3.17,5.08-5.64,6.62-2.75,1.71-6.29,1.05-9.42.33a1.17,1.17,0,0,1-.74-.39,1.06,1.06,0,0,1-.14-.33c-1-3.8-1.71-7.85-.65-11.66.86-3.24,2.91-6,4.56-8.86S478.59,137.85,482.32,136.91Z" transform="translate(-3.59 -1.32)"/><path id="Path_2335" data-name="Path 2335" class="cls-3" d="M405.69,87.76a22.25,22.25,0,0,0-9.43,2.87c-1.92,1.1-3.89,2.57-6.09,2.31-1.29-.15-2.57-.86-3.83-.52a7.49,7.49,0,0,0-2,1.17,2.24,2.24,0,0,1-2.16.34l-.86,11.86c-.32,4.51-.64,9.11.44,13.51.56,2.25,1.78,4.29,1.92,6.57s-.07,4.62.09,6.92c.16,2.14.63,4.24.75,6.37.24,4-.76,8-1.72,11.94-1.44,5.78-2.32,11.68-5.14,16.91-.79,1.45-1.71,2.92-1.71,4.57a2.43,2.43,0,0,0,.05.6c-.86.47-1.65.91-2.38,1.38-1.63,1.05-3.37,2.22-4,4.05-.54,1.48-.29,3.18-.94,4.61s-2.15,2.45-2.47,4c-.23,1.12.21,2.3,0,3.42a13.72,13.72,0,0,0-.47,1.78c-.09,1.28,1,2.32,2.08,3a16.68,16.68,0,0,0,5.14,2.27l5.12-20.32h0a164,164,0,0,0,11.6-27,57.23,57.23,0,0,1,3.35-8.88,41.18,41.18,0,0,0,2.57-5,37.25,37.25,0,0,0,1.23-6.78,47.77,47.77,0,0,1,2-7.82c.92-2.75,2-5.5,2.18-8.39.29-4.13-1.21-8.49.38-12.31A16.49,16.49,0,0,1,404,97.26c2.21-2.7,4.22-5.54,6.43-8.25C409.31,87.79,407.4,87.66,405.69,87.76Z" transform="translate(-3.59 -1.32)"/><g id="Group_17278" data-name="Group 17278" class="cls-7"><path id="Path_213" data-name="Path 213" d="M429.84,40.36l-1.07.07-.12.09A6.81,6.81,0,0,0,429.84,40.36Z" transform="translate(-3.59 -1.32)"/><path id="Path_214" data-name="Path 214" d="M449.45,58.15a23.15,23.15,0,0,1-1.1,5,23,23,0,0,0-.86,3c-.17,1-.19,2-.34,3a9.75,9.75,0,0,1-3.94,6.49,1.77,1.77,0,0,1-1.06.39c-.67-.08-1.08-.86-1.33-1.56-1.36-3.94-1-8.75-3.55-11.88a12.86,12.86,0,0,0-4.06-3,5.32,5.32,0,0,0-2.07-.78,5.45,5.45,0,0,0-3,1.1,18.76,18.76,0,0,1-5.93,2.62,7.28,7.28,0,0,1-6.13-1.32c-1.18-1-2.05-2.44-3.36-3.2s-2.68-.72-4-1.25a5.85,5.85,0,0,1-3.34-3.82c0-.11,0-.21-.07-.32a6.06,6.06,0,0,0,.07,2.9,5.89,5.89,0,0,0,3.34,3.82c1.3.52,2.75.53,4,1.24s2.18,2.23,3.36,3.21a7.31,7.31,0,0,0,6.13,1.32,18.79,18.79,0,0,0,5.93-2.63,5.52,5.52,0,0,1,3-1.1,5.26,5.26,0,0,1,2.07.78,13.14,13.14,0,0,1,4,3.05c2.51,3.14,2.19,8,3.55,11.88.25.71.66,1.49,1.33,1.56a1.65,1.65,0,0,0,1.12-.41,9.79,9.79,0,0,0,4-6.51c.15-1,.17-2,.34-3a21.2,21.2,0,0,1,.86-3,19.43,19.43,0,0,0,1.14-7.21A3.07,3.07,0,0,1,449.45,58.15Z" transform="translate(-3.59 -1.32)"/></g></g><g id="Group_2" data-name="Group 2"><rect id="Rectangle_76" data-name="Rectangle 76" class="cls-3" x="371.06" y="194.26" width="5.95" height="48.4" rx="2.29"/><path id="Path_176" data-name="Path 176" class="cls-8" d="M350.17,115.4H327.35v2.71a12.93,12.93,0,0,1-13,12.85H241.78a13,13,0,0,1-13-12.85h0V115.4H207.4A15.7,15.7,0,0,0,191.6,131h0V478.32a15.71,15.71,0,0,0,15.8,15.6H350.17a15.71,15.71,0,0,0,15.8-15.6h0V131a15.52,15.52,0,0,0-4.62-11,15.88,15.88,0,0,0-11.18-4.58Z" transform="translate(-3.59 -1.32)"/><path id="Rectangle_81" data-name="Rectangle 81" class="cls-9" d="M262,116.92h22.2a2.79,2.79,0,0,1,2.79,2.79h0a2.79,2.79,0,0,1-2.79,2.78H262a2.79,2.79,0,0,1-2.79-2.78h0A2.79,2.79,0,0,1,262,116.92Z" transform="translate(-3.59 -1.32)"/><ellipse id="Ellipse_5" data-name="Ellipse 5" class="cls-9" cx="290.8" cy="118.39" rx="3.2" ry="3.16"/><ellipse id="Ellipse_11" data-name="Ellipse 11" class="cls-10" cx="276.03" cy="308.23" rx="37.63" ry="37.17"/><path id="Path_222" data-name="Path 222" class="cls-11" d="M329.1,304.36c0,27.43-22.51,49.67-50.29,49.67s-50.29-22.24-50.29-49.67,22.52-49.68,50.29-49.68S329.1,276.93,329.1,304.36ZM273,330.66l37.3-36.85a3.17,3.17,0,0,0,.05-4.49l-.05-.05-4.59-4.5a3.27,3.27,0,0,0-4.58,0L270.7,314.83l-14.2-14.07a3.28,3.28,0,0,0-4.59,0l-4.59,4.56a3.19,3.19,0,0,0,0,4.51l0,0,21.09,20.82a3.26,3.26,0,0,0,4.59,0Z" transform="translate(-3.59 -1.32)"/><rect id="Rectangle_80" data-name="Rectangle 80" class="cls-12" x="176.1" y="105.68" width="198.9" height="399.3" rx="10"/></g><g id="Group_1" data-name="Group 1"><path id="Rectangle_77" data-name="Rectangle 77" class="cls-3" d="M154.87,284.29h0a1.65,1.65,0,0,1,1.64,1.64v12.61a1.65,1.65,0,0,1-1.64,1.65h0a1.65,1.65,0,0,1-1.65-1.65V285.93A1.65,1.65,0,0,1,154.87,284.29Z" transform="translate(-3.59 -1.32)"/><rect id="Rectangle_78" data-name="Rectangle 78" class="cls-3" x="149.52" y="312.08" width="3.7" height="27.66" rx="1.85"/><path id="Rectangle_79" data-name="Rectangle 79" class="cls-3" d="M154.93,350.74h0a1.76,1.76,0,0,1,1.76,1.76v24.38a1.76,1.76,0,0,1-1.76,1.76h0a1.76,1.76,0,0,1-1.77-1.76V352.5A1.76,1.76,0,0,1,154.93,350.74Z" transform="translate(-3.59 -1.32)"/><path id="Path_190" data-name="Path 190" class="cls-13" d="M109.49,424.52a.61.61,0,0,0,.72.1A2.55,2.55,0,0,1,109.49,424.52Z" transform="translate(-3.59 -1.32)"/><path id="Path_192" data-name="Path 192" class="cls-14" d="M136.74,435.18l-.71,3.88-.55,3-1,5.42-9.68,6.78s-.87-.75-2.31-1.93c-4-3.26-12.3-9.91-18.43-13.48A20.58,20.58,0,0,0,99,436.47Z" transform="translate(-3.59 -1.32)"/><path id="Path_194" data-name="Path 194" class="cls-3" d="M129.64,438.07s11.28,1.94,12-2.88-5.81-7.43-11.3-7.75-38.4,1.93-38.4,1.93-5.8,7.75,15.16,9Z" transform="translate(-3.59 -1.32)"/><rect id="Rectangle_82" data-name="Rectangle 82" class="cls-15" x="91.69" y="277.69" width="59.04" height="70.01"/><rect id="Rectangle_83" data-name="Rectangle 83" class="cls-5" x="91.69" y="278.01" width="59.04" height="70.01"/><path id="Path_198" data-name="Path 198" class="cls-14" d="M26.08,398.86a9.56,9.56,0,0,0-3.6,2.55C16.53,407.3,8,421.12,8,421.12c-10.9-13,1.16-23.23,6.3-26.75,1.25-.86,2.08-1.33,2.08-1.33Z" transform="translate(-3.59 -1.32)"/><path id="Path_199" data-name="Path 199" class="cls-14" d="M136.09,301.11S139,321.43,149,326.27s-12.91,13.89-12.91,13.89L104.8,328.53s17.74-5.81,14.2-22.91Z" transform="translate(-3.59 -1.32)"/><path id="Path_200" data-name="Path 200" class="cls-14" d="M102.54,423.38l-.71,3.87-.58,3-1,5.43-9.68,6.77s-.87-.74-2.31-1.92c-4-3.27-12.3-9.92-18.43-13.49a20.62,20.62,0,0,0-5.07-2.33Z" transform="translate(-3.59 -1.32)"/><path id="Path_202" data-name="Path 202" class="cls-15" d="M94.16,428.15s10.13.07,10.74-4.76-5.52-7.43-10.74-7.75-36.92,2.08-36.92,2.08-4.5,9.13,15.44,10.43Z" transform="translate(-3.59 -1.32)"/><path id="Path_204" data-name="Path 204" class="cls-12" d="M165.19,504.08l-1.33-.66-1.19-1.5-15.61-19.8v.34c-.1,3.31-1.23,29.5-10,31.93-9.35,2.58-20.64,3.22-25.79-14.2s-14.54-55.5-24.2-57.76l14.37-11.77s9.5,11.12,13.38,21.76c-.15-.66-6.71-31.34-1.33-36.77h47.12s7.27,20.72,12.26,31c3.88,8,9.7,26.8,13.45,39.55C190,498.78,177,509.89,165.19,504.08Z" transform="translate(-3.59 -1.32)"/><path id="Path_205" data-name="Path 205" class="cls-5" d="M163.84,421.45c-7.27,4.3-39.2,2.55-49.59,1.85l-2.83-.21c-.3,0,0-.17,0-.17l.29-2.93,7.75-19.67L161,376.27c-.84,2.54-1.11,6.41-1.05,10.85C160.1,401.37,163.84,421.45,163.84,421.45Z" transform="translate(-3.59 -1.32)"/><path id="Path_206" data-name="Path 206" class="cls-11" d="M163.84,420.48c-7.27,4.3-39.2,2.55-49.59,1.85l-2.83-.2-.47,0,.52-.14,2.55-.66,5.48-21.93,41.46-24c-.84,2.53-1.12,6.41-1.05,10.85C160.1,400.41,163.84,420.48,163.84,420.48Z" transform="translate(-3.59 -1.32)"/><path id="Path_207" data-name="Path 207" class="cls-5" d="M159.88,386.15c-8.43,2-27,7.65-34.11,21.43-4.75,9.17-8.75,13.1-11.54,14.75l-2.83-.2c0-.06,0-.12,0-.18l2.55-.66,5.49-21.93,41.45-24C160.1,377.84,159.82,381.72,159.88,386.15Z" transform="translate(-3.59 -1.32)"/><path id="Path_208" data-name="Path 208" class="cls-5" d="M16.4,393.06l9.68,5.8a9.48,9.48,0,0,0-3.6,2.55c-.81-2.36-5.87-5.64-8.17-7C15.56,393.53,16.4,393.06,16.4,393.06Z" transform="translate(-3.59 -1.32)"/><path id="Path_209" data-name="Path 209" class="cls-5" d="M109.67,422.51a.58.58,0,0,1-.66-.1A2.16,2.16,0,0,0,109.67,422.51Z" transform="translate(-3.59 -1.32)"/><path id="Path_210" data-name="Path 210" class="cls-16" d="M131.58,325s-8.72,1-14.85-5.49c0,0-25.78,7.43-34.52,24.2s-68.1,49.69-68.1,49.69,10.33,5.81,9.36,8.71l39-22.59s13.89-10,17.74-12.26,25.17-16.13,29.69,21.62,0,33.23,0,33.23,6.45,2.26,15.81-15.81S164.14,384,164.14,384l1.61-19s5.76-12.62,1.32-17.85a11.21,11.21,0,0,1-2.58-5.46c-.74-4.84,0-12.89,10.27-19.58,15.81-10.33,21.94-18.71,21.94-18.71s.32-6.14-9.36-9-49-18.71-49-18.71L137,281.12,168,303s-15.49,12.56-27.77,12.26C140.26,315.3,142.55,324.66,131.58,325Z" transform="translate(-3.59 -1.32)"/><path id="Path_211" data-name="Path 211" class="cls-5" d="M137.55,310a64.14,64.14,0,0,1-1.78-7.88l-17.1,4.52a18.76,18.76,0,0,1-.39,9.86,18.37,18.37,0,0,0,19.27-6.5Z" transform="translate(-3.59 -1.32)"/><circle id="Ellipse_10" data-name="Ellipse 10" class="cls-14" cx="119.77" cy="296.4" r="18.39"/><path id="Path_213-2" data-name="Path 213-2" class="cls-5" d="M143.35,445.81s10.65,21,7.42,27.41" transform="translate(-3.59 -1.32)"/><path id="Path_221" data-name="Path 221" class="cls-15" d="M133.13,255.25c5.1.59,10,2.77,15,4a7.47,7.47,0,0,0,3.87.15c2-.6,3.54-2.65,5.56-2.59a6.15,6.15,0,0,1,3.37,1.7,41.26,41.26,0,0,1,4.63,4.13c3.47,3.76,5.61,8.82,8.78,12.92s7.66,8.89,12.15,7c-3.05,11.9-12.58,19.35-23.4,20.09-4.31.3-8.74-.6-12.92.66a11.11,11.11,0,0,1-3.26.79c-2.4,0-4.34-2.21-5.84-4.35-3.52-5.06-6.3-10.79-10.26-15.4-1.33-1.52-2.85-3-4.7-3.25s-3.55.61-5.2,1.46c-2.72,1.41-5.5,2.86-7.6,5.29s-3.44,6-2.57,9.26c.47,1.76,1.54,3.34,1.56,5.18,0,2.94-2.55,5.08-3.06,7.94a29,29,0,0,0-.13,3.61c-.22,3.91-2.78,7.11-5.45,9.58a6.82,6.82,0,0,0-2.5,3.45c-.21,1,0,2.08-.13,3.1-.39,2.54-2.93,3.83-5.17,4.16a14.87,14.87,0,0,1-7.75-.92c3.14-1.48,5.07-5.7,4.34-9.47-1-5.24-6.26-9-5.81-14.33a16.62,16.62,0,0,1,1.46-4.71,43.28,43.28,0,0,0,2.48-8.94,15,15,0,0,0-.15-7.12c-.66-2.05-2-3.68-3.21-5.41a30.87,30.87,0,0,1-3.73-7.63,5.28,5.28,0,0,1-.35-2.52,5.11,5.11,0,0,1,1.62-2.61c2.87-3,6-6.17,9.8-7a21.65,21.65,0,0,1,5.57-.21,66.47,66.47,0,0,0,9.67-.41c2.65-.31,7.12-.27,9.36-2s3.27-3.61,5.84-4.62a17.16,17.16,0,0,1,8.16-.94Z" transform="translate(-3.59 -1.32)"/></g><rect id="Rectangle_7680" data-name="Rectangle 7680" class="cls-17" x="188" y="120.61" width="176" height="372" rx="9"/><path id="Path_2396" data-name="Path 2396" class="cls-18" d="M235.19,317.87s.09-38.92,16.63-49.29,43.22,49.1,51.88,43.67c23.08-14.49,18.57-51.51,18.57-51.51l45.28,34.47V468.35Z" transform="translate(-3.59 -1.32)"/><g id="g5244-6-3-8-3-9-4-9-9-6-3"><g id="path5223-8-3-1-0-5-3-0-0-9-9-3"><path id="Path_441" data-name="Path 441" class="cls-10" d="M302.39,322c-9,0-17.79-5.24-22.67-14l-.09-.17c-6.38-12.11-7.19-13.61-8-15.07s-1.64-3-8-15.13c-2.43-4.31-6.58-5.8-9.44-5-.83.22-3,.81-3,5.15l.72,40.24-16.91.3L234.33,278c-.14-10.71,6-19.26,15.52-21.82,10.9-2.91,22.66,2.53,28.61,13.24l.09.17c6.37,12.1,7.19,13.61,8,15.07s1.64,3,8,15.13c2.43,4.31,6.57,5.79,9.43,5,.83-.22,3-.81,3-5.15l-.72-38.54,16.92-.31.72,38.6c.13,10.72-6,19.26-15.53,21.82A22.9,22.9,0,0,1,302.39,322Z" transform="translate(-3.59 -1.32)"/></g></g></svg>