<svg id="layer1" xmlns="http://www.w3.org/2000/svg" xmlns:xlink="http://www.w3.org/1999/xlink" width="256.625" height="76.037" viewBox="0 0 256.625 76.037">
  <defs>
    <linearGradient id="linear-gradient" x1="0.517" y1="-1.937" x2="-0.436" y2="-2.428" gradientUnits="objectBoundingBox">
      <stop offset="0" stop-color="#00a0ff"/>
      <stop offset="0.01" stop-color="#00a1ff"/>
      <stop offset="0.26" stop-color="#00beff"/>
      <stop offset="0.51" stop-color="#00d2ff"/>
      <stop offset="0.76" stop-color="#00dfff"/>
      <stop offset="1" stop-color="#00e3ff"/>
    </linearGradient>
    <linearGradient id="linear-gradient-2" x1="0.255" y1="-7.602" x2="-1.494" y2="-7.602" gradientUnits="objectBoundingBox">
      <stop offset="0" stop-color="#ffe000"/>
      <stop offset="0.41" stop-color="#ffbd00"/>
      <stop offset="0.78" stop-color="orange"/>
      <stop offset="1" stop-color="#ff9c00"/>
    </linearGradient>
    <linearGradient id="linear-gradient-3" x1="0.506" y1="-5.522" x2="-0.495" y2="-6.819" gradientUnits="objectBoundingBox">
      <stop offset="0" stop-color="#ff3a44"/>
      <stop offset="1" stop-color="#c31162"/>
    </linearGradient>
    <linearGradient id="linear-gradient-4" x1="-0.264" y1="-3.26" x2="0.182" y2="-3.839" gradientUnits="objectBoundingBox">
      <stop offset="0" stop-color="#32a071"/>
      <stop offset="0.07" stop-color="#2da771"/>
      <stop offset="0.48" stop-color="#15cf74"/>
      <stop offset="0.8" stop-color="#06e775"/>
      <stop offset="1" stop-color="#00f076"/>
    </linearGradient>
  </defs>
  <rect id="rect46" width="196.181" height="75.941" transform="translate(0 0.096)" fill="rgba(255,255,255,0)"/>
  <rect id="rect48" width="256.625" height="76.037" rx="7.366" transform="translate(0 0)"/>
  <path id="path50-2" d="M247.559,239.258a7.984,7.984,0,0,1,7.984,7.984v57.028a7.984,7.984,0,0,1-7.984,7.984H9.943a7.984,7.984,0,0,1-7.984-7.984V247.241a7.984,7.984,0,0,1,7.984-7.984H247.559m0-1.521H9.943a9.5,9.5,0,0,0-9.5,9.5v57.028a9.5,9.5,0,0,0,9.5,9.5H247.559a9.5,9.5,0,0,0,9.5-9.5V247.241a9.5,9.5,0,0,0-9.5-9.5Z" transform="translate(-0.439 -237.737)" fill="#a6a6a6"/>
  <path id="path52-2" d="M76.114,254.529a4.765,4.765,0,0,1-1.319,3.516,5.116,5.116,0,0,1-3.868,1.565,5.538,5.538,0,0,1-3.885-9.441,5.274,5.274,0,0,1,3.885-1.582,5.45,5.45,0,0,1,2.162.439,4.343,4.343,0,0,1,1.653,1.178l-.932.932a3.516,3.516,0,0,0-2.883-1.248,4.079,4.079,0,0,0-4.1,4.22,4.149,4.149,0,0,0,7.032,3.042A3.323,3.323,0,0,0,74.742,255H70.927v-1.266h5.116a4.467,4.467,0,0,1,.07.791Z" transform="translate(18.435 -234.586)" fill="#fff" stroke="#fff" stroke-miterlimit="10" stroke-width="0.273"/>
  <path id="path54-6" d="M81.335,250.079H76.588v3.34h4.325v1.266H76.588v3.34h4.747v1.3H75.182V248.778h6.153Z" transform="translate(21.266 -234.531)" fill="#fff" stroke="#fff" stroke-miterlimit="10" stroke-width="0.273"/>
  <path id="path56-4" d="M85.388,259.326H84.035v-9.248H81.081v-1.3h7.331v1.3H85.388Z" transform="translate(22.979 -234.531)" fill="#fff" stroke="#fff" stroke-miterlimit="10" stroke-width="0.273"/>
  <path id="path58-2" d="M90.768,259.326V248.778h1.354v10.549Z" transform="translate(25.792 -234.531)" fill="#fff" stroke="#fff" stroke-miterlimit="10" stroke-width="0.273"/>
  <path id="path60-7" d="M97.446,259.326H96.093v-9.248H93.139v-1.3h7.244v1.3H97.446Z" transform="translate(26.481 -234.531)" fill="#fff" stroke="#fff" stroke-miterlimit="10" stroke-width="0.273"/>
  <path id="path62-0" d="M111.484,258.013a5.485,5.485,0,0,1-7.736,0,5.7,5.7,0,0,1,0-7.824,5.45,5.45,0,0,1,7.736,0A5.679,5.679,0,0,1,111.484,258.013Zm-6.734-.879a4.061,4.061,0,0,0,5.732,0,4.5,4.5,0,0,0,0-6.048,4.061,4.061,0,0,0-5.732,0,4.5,4.5,0,0,0,0,6.048Z" transform="translate(29.11 -234.588)" fill="#fff" stroke="#fff" stroke-miterlimit="10" stroke-width="0.273"/>
  <path id="path64" d="M112.077,259.326V248.778h1.653l5.134,8.21h0v-8.21H120.2v10.549h-1.406l-5.362-8.6h0v8.6Z" transform="translate(31.981 -234.531)" fill="#fff" stroke="#fff" stroke-miterlimit="10" stroke-width="0.273"/>
  <path id="path66" d="M112.729,270.755a7.472,7.472,0,1,0,7.507,7.472,7.367,7.367,0,0,0-7.507-7.472Zm0,12.008a4.536,4.536,0,1,1,4.22-4.536,4.325,4.325,0,0,1-4.22,4.536ZM96.361,270.755a7.472,7.472,0,1,0,7.49,7.472,7.367,7.367,0,0,0-7.507-7.472Zm0,12.008a4.536,4.536,0,1,1,4.2-4.536,4.325,4.325,0,0,1-4.22,4.536Zm-19.5-9.7v3.165h7.6a6.628,6.628,0,0,1-1.758,3.991,7.771,7.771,0,0,1-5.855,2.321,8.439,8.439,0,0,1,0-16.878,8.087,8.087,0,0,1,5.749,2.268l2.233-2.233a11.059,11.059,0,0,0-7.964-3.288,11.621,11.621,0,1,0,0,23.225,10.263,10.263,0,0,0,10.848-10.672,10.319,10.319,0,0,0-.176-1.987H76.863Zm79.661,2.461a6.908,6.908,0,0,0-13.432,2.708,7.314,7.314,0,0,0,7.419,7.472,7.437,7.437,0,0,0,6.224-3.305l-2.549-1.758a4.272,4.272,0,0,1-3.675,2.075,3.8,3.8,0,0,1-3.622-2.268l10-4.132Zm-10.2,2.5a4.1,4.1,0,0,1,3.9-4.36,2.9,2.9,0,0,1,2.778,1.582ZM138.2,285.26h3.288V263.283H138.2Zm-5.38-12.834H132.7a5.274,5.274,0,0,0-3.938-1.758,7.49,7.49,0,0,0,0,14.962,5.1,5.1,0,0,0,3.938-1.758h.105v1.213c0,2.866-1.53,4.4-3.991,4.4a4.132,4.132,0,0,1-3.762-2.655l-2.866,1.2a7.12,7.12,0,0,0,6.628,4.413c3.85,0,7.033-2.268,7.033-7.789v-13.45h-3.024Zm-3.762,10.338a4.554,4.554,0,0,1,0-9.072,4.549,4.549,0,0,1-.018,9.072Zm42.863-19.48h-7.859V285.26h3.288v-8.333h4.589a6.839,6.839,0,1,0-.018-13.643Zm0,10.549h-4.589v-7.49H172a3.762,3.762,0,0,1,0,7.525Zm20.271-3.165a6.153,6.153,0,0,0-5.855,3.358l2.918,1.213a3.112,3.112,0,0,1,2.989-1.617,3.165,3.165,0,0,1,3.516,2.831v.229a7.261,7.261,0,0,0-3.428-.844c-3.147,0-6.329,1.758-6.329,4.94a5.081,5.081,0,0,0,5.45,4.835,4.624,4.624,0,0,0,4.22-2.11h.105v1.758h3.165V276.8c0-3.85-2.918-6.083-6.663-6.083Zm-.4,12.043a2.286,2.286,0,0,1-2.567-1.864c0-1.758,1.864-2.338,3.516-2.338a5.837,5.837,0,0,1,2.989.738,3.973,3.973,0,0,1-3.85,3.516Zm18.689-11.516-3.762,9.529h-.105l-3.9-9.529h-3.516l5.855,13.327-3.34,7.4h3.428l9-20.728H210.5ZM180.927,285.26h3.288V263.283h-3.288Z" transform="translate(18.248 -230.576)" fill="#fff"/>
  <path id="path68" d="M23.509,249.541A3.516,3.516,0,0,0,22.7,252v38.89a3.516,3.516,0,0,0,.809,2.461l.123.123,21.783-21.766v-.527L23.632,249.418Z" transform="translate(6.024 -234.345)" fill="url(#linear-gradient)"/>
  <path id="path70" d="M47.51,275.708,40.3,268.447v-.527l7.208-7.261.158.088,8.632,4.905c2.461,1.389,2.461,3.675,0,5.081l-8.6,4.888Z" transform="translate(11.137 -231.08)" fill="url(#linear-gradient-2)"/>
  <path id="path72" d="M52.651,273.909l-7.419-7.419L23.326,288.4a2.866,2.866,0,0,0,3.657.106l25.686-14.592" transform="translate(6.208 -229.387)" fill="url(#linear-gradient-3)"/>
  <path id="path74" d="M52.655,264.161,26.969,249.568a2.866,2.866,0,0,0-3.657.105L45.236,271.58Z" transform="translate(6.204 -234.477)" fill="url(#linear-gradient-4)"/>
  <path id="path76" d="M52.44,272.117l-25.475,14.5a2.936,2.936,0,0,1-3.516,0h0l-.123.123h0l.123.123h0a2.919,2.919,0,0,0,3.516,0l25.686-14.592Z" transform="translate(6.208 -227.753)" opacity="0.2" style="isolation: isolate"/>
  <path id="path78" d="M23.509,283.829a3.516,3.516,0,0,1-.809-2.461v.264a3.516,3.516,0,0,0,.809,2.461l.123-.123Z" transform="translate(6.024 -225.067)" opacity="0.12" style="isolation: isolate"/>
  <path id="path80" d="M54.679,268.775l-8.791,4.976.158.158,8.632-4.888a3.077,3.077,0,0,0,1.758-2.532h0a3.27,3.27,0,0,1-1.758,2.286Z" transform="translate(12.76 -229.387)" opacity="0.12" style="isolation: isolate"/>
  <path id="path82" d="M27.151,249.81l34.266,19.48a3.27,3.27,0,0,1,1.758,2.286h0a3.077,3.077,0,0,0-1.758-2.532l-34.266-19.48c-2.461-1.389-4.466-.229-4.466,2.584v.264c.053-2.831,2.022-3.991,4.466-2.6Z" transform="translate(6.022 -234.473)" fill="#fff" opacity="0.25" style="isolation: isolate"/>
</svg>
