<svg xmlns="http://www.w3.org/2000/svg" width="839.39" height="666.333" viewBox="0 0 839.39 666.333">
  <g id="undraw_road_sign_mfpo" transform="translate(0 0)">
    <circle id="Ellipse_78" data-name="Ellipse 78" cx="55.1" cy="55.1" r="55.1" transform="translate(393.422 30.958)" fill="#ff6584"/>
    <path id="Path_474" data-name="Path 474" d="M395.132,431.937c0,106.421-63.266,143.579-141.308,143.579S112.517,538.358,112.517,431.937,253.824,190.131,253.824,190.131,395.132,325.516,395.132,431.937Z" transform="translate(-112.517 -80.697)" fill="#f2f2f2"/>
    <path id="Path_475" data-name="Path 475" d="M148.98,496.216l1.446-89.064,60.229-110.186-60,96.214.65-40.047,41.51-79.719-41.338,69.121h0l1.171-72.026L197.1,207.042l-44.265,52.14.731-132.072-4.594,174.838.377-7.212-45.192-69.174,44.468,83.02-4.211,80.441-.126-2.135-52.1-72.8,51.941,80.338-.527,10.06-.094.152.043.826L132.865,609.554h14.274L148.85,504.14,200.664,424Z" transform="translate(-12.819 -17.676)" fill="#3f3d56"/>
    <path id="Path_476" data-name="Path 476" d="M871.4,358.429c0,130.012-77.29,175.408-172.632,175.408s-172.632-45.4-172.632-175.408S698.765,63.021,698.765,63.021,871.4,228.417,871.4,358.429Z" transform="translate(-170.033 -63.021)" fill="#f2f2f2"/>
    <path id="Path_477" data-name="Path 477" d="M595.62,450.928l1.768-108.808,73.58-134.612-73.3,117.543.8-48.925,50.711-97.39-50.5,84.443h0l1.429-87.993,54.3-77.535-54.078,63.7L601.218,0,595.6,213.6l.461-8.812-55.21-84.507L595.181,221.7l-5.145,98.273-.152-2.608-63.648-88.932,63.455,98.146-.644,12.29-.115.185.052,1.009L575.933,589.391h17.438l2.093-128.783,63.3-97.906Z" transform="translate(-73.177 0)" fill="#3f3d56"/>
    <ellipse id="Ellipse_79" data-name="Ellipse 79" cx="265.17" cy="9.47" rx="265.17" ry="9.47" transform="translate(79.178 580.239)" fill="#3f3d56"/>
    <ellipse id="Ellipse_80" data-name="Ellipse 80" cx="122.254" cy="11.623" rx="122.254" ry="11.623" transform="translate(594.882 643.087)" fill="#3f3d56"/>
    <rect id="Rectangle_6274" data-name="Rectangle 6274" width="30.994" height="290.998" transform="translate(328.851 298.711)" fill="#2f2e41"/>
    <path id="Path_478" data-name="Path 478" d="M534.235,415.336H343.967V361.958H534.235l55.1,26.689Z" transform="translate(-47.831 -50.333)" fill="#3f3d56"/>
    <path id="Path_479" data-name="Path 479" d="M534.235,414.995H343.967v4.3H534.235l55.1-26.689-4.443-2.152Z" transform="translate(-47.831 -54.296)" opacity="0.1"/>
    <path id="Path_480" data-name="Path 480" d="M227.067,497.336H417.335V443.958H227.067l-55.1,26.689Z" transform="translate(-23.913 -61.736)" fill="#3f3d56"/>
    <path id="Path_481" data-name="Path 481" d="M176.41,472.458l-4.443,2.152,55.1,26.689H417.335v-4.3H227.067Z" transform="translate(-23.913 -65.699)" opacity="0.1"/>
    <rect id="Rectangle_6275" data-name="Rectangle 6275" width="32.716" height="32.716" transform="translate(402.892 321.956)" fill="#f80"/>
    <circle id="Ellipse_81" data-name="Ellipse 81" cx="16.358" cy="16.358" r="16.358" transform="translate(254.81 392.553)" fill="#f80"/>
    <circle id="Ellipse_82" data-name="Ellipse 82" cx="9.47" cy="9.47" r="9.47" transform="translate(334.878 327.122)" fill="#2f2e41"/>
    <circle id="Ellipse_83" data-name="Ellipse 83" cx="9.47" cy="9.47" r="9.47" transform="translate(334.878 397.719)" fill="#2f2e41"/>
    <path id="Path_482" data-name="Path 482" d="M430.186,703.216c0,19.344-11.5,26.1-25.685,26.1q-.493,0-.984-.011c-.657-.014-1.308-.045-1.951-.089-12.8-.906-22.749-8.008-22.749-26,0-18.618,23.792-42.111,25.579-43.849l0,0,.1-.1S430.186,683.872,430.186,703.216Z" transform="translate(-149.548 -145.933)" fill="#f80"/>
    <path id="Path_483" data-name="Path 483" d="M405.9,726.355l9.394-13.127L405.872,727.8l-.025,1.507c-.657-.014-1.308-.045-1.951-.089l1.013-19.354-.008-.15.017-.028.1-1.828-9.441-14.6,9.471,13.233.022.388.765-14.623-8.083-15.091,8.181,12.524.8-30.316,0-.1v.1l-.133,23.906,8.047-9.477-8.08,11.537-.213,13.092,7.513-12.565-7.545,14.491-.119,7.279,10.908-17.488-10.948,20.028Z" transform="translate(-151.878 -145.933)" fill="#3f3d56"/>
    <path id="Path_484" data-name="Path 484" d="M894.144,798.893s-12.19,10.265-18.606,9.624-18.606-.642-13.473,6.416,26.305,10.907,35.287,11.548,28.871,1.283,27.588-2.566-2.566-21.814-7.7-23.1S894.144,798.893,894.144,798.893Z" transform="translate(-216.576 -165.35)" fill="#575a89"/>
    <path id="Path_485" data-name="Path 485" d="M976.16,786.483s-8.983,13.164-15.335,14.27-18.094,4.382-11.253,9.8,28.268,3.436,37.093,1.64,28.154-6.523,25.883-9.886-8.335-20.322-13.623-20.178S976.16,786.483,976.16,786.483Z" transform="translate(-228.627 -163.019)" fill="#575a89"/>
    <path id="Path_486" data-name="Path 486" d="M890.16,566.566s-8.257,56.55-6.333,66.815,3.208,26.3,3.208,26.3-1.283,13.473,0,19.889,8.982,67.366,8.982,68.65-1.283,5.133,0,8.341,3.849.642,0,5.774-1.283,6.416-.642,6.416,25.663,2.566,26.947,0-.642-3.208,0-6.416,1.283-3.849,2.566-4.491,3.849.642,1.925-2.566-6.416-7.057-5.133-8.982-.642-16.04-.642-16.04-1.283-31.438-1.925-50.685,5.774-39.137,5.774-39.137a73.407,73.407,0,0,0,16.681,42.986c16.681,19.889,25.022,57.1,25.022,57.1s3.849,5.774,1.925,10.907-7.7,1.925-1.925,5.133,25.663-1.283,27.588-3.208-2.566-4.491-1.283-9.624,6.416-3.849,1.925-6.416-5.774-1.925-5.774-4.491S977.5,674.443,959.534,658.4l-1.283-58.384s16.04-41.061-.642-44.911S890.16,566.566,890.16,566.566Z" transform="translate(-219.733 -131.363)" fill="#2f2e41"/>
    <path id="Path_487" data-name="Path 487" d="M904.74,389.966s10.907,26.947,8.341,30.8,31.438-12.832,31.438-12.832-10.907-26.947-10.907-30.154S904.74,389.966,904.74,389.966Z" transform="translate(-222.682 -106.729)" fill="#a0616a"/>
    <circle id="Ellipse_84" data-name="Ellipse 84" cx="23.739" cy="23.739" r="23.739" transform="translate(666.34 242.497)" fill="#a0616a"/>
    <path id="Path_488" data-name="Path 488" d="M942.416,400.163s-16.681-1.925-25.022,8.341-9.624,12.832-9.624,12.832-19.889,32.079-16.04,48.119a46.427,46.427,0,0,1,2.566,4.491c1.283,2.566,1.283,38.5,0,44.269s-2.566,7.7-1.283,16.04-10.265,21.814,3.208,24.38,23.739.642,28.23-5.133.642-9.624,14.756-9.624,23.1-9.624,23.1-9.624-7.057-7.7-4.491-8.982,0-4.491-1.283-7.7-1.283-5.774.642-5.774.642-1.283-.642-4.491,22.455-58.384,8.341-74.424S943.7,407.862,943.7,407.862,946.266,398.238,942.416,400.163Z" transform="translate(-220.58 -109.868)" fill="#f80"/>
    <path id="Path_489" data-name="Path 489" d="M904.183,471v28.23l-20.531,68.008s-13.473,35.287,0,35.287,12.751-33.68,12.751-33.68l28.952-51.009s11.549-40.42,10.265-43.628S904.183,471,904.183,471Z" transform="translate(-218.917 -119.754)" fill="#a0616a"/>
    <path id="Path_490" data-name="Path 490" d="M918.714,422.559s-19.248,7.7-14.115,28.23,0,19.889,0,19.889,26.305-2.566,34.646,3.208l1.925-7.7S948.869,421.917,918.714,422.559Z" transform="translate(-222.541 -113.017)" fill="#f80"/>
    <path id="Path_491" data-name="Path 491" d="M902.772,348.558a9.471,9.471,0,0,1-8.9-1.385,7.167,7.167,0,0,1-2.022-8.461c1.228-2.411,3.856-3.734,6.376-4.72a59.257,59.257,0,0,1,17.366-3.921c2.838-.2,5.819-.17,8.352,1.127,1.253.642,2.342,1.567,3.583,2.232,2.282,1.222,4.938,1.494,7.4,2.28a18.533,18.533,0,0,1,11.326,10.411,22.331,22.331,0,0,1,1.4,5.168,28.786,28.786,0,0,1-1.5,14.41c-2.735,7.282-8.471,13.648-8.795,21.419-3.511-2.547-4.813-7.145-7.626-10.446a14.209,14.209,0,0,0-8.109-4.7,4.517,4.517,0,0,1-2.417-.881,3.892,3.892,0,0,1-.883-2.059l-2.4-11.342c-.489-2.308-1.107-4.825-3-6.228a9.09,9.09,0,0,0-3.915-1.379,61.42,61.42,0,0,0-10.03-.915" transform="translate(-220.8 -100.144)" fill="#2f2e41"/>
  </g>
</svg>
